<?xml version="1.0" encoding="UTF-8"?>
<svg version="1.1" xmlns="http://www.w3.org/2000/svg" width="405" height="125">
<path d="M0 0 C4.99125 -0.061875 9.9825 -0.12375 15.125 -0.1875 C16.68879395 -0.21481201 18.25258789 -0.24212402 19.86376953 -0.27026367 C21.10755371 -0.27775635 22.35133789 -0.28524902 23.6328125 -0.29296875 C24.90012207 -0.3086792 26.16743164 -0.32438965 27.47314453 -0.34057617 C31.34944957 0.03374513 33.71295564 0.94085374 37 3 C39.51756835 6.77635253 39.63772451 9.56365558 39 14 C37.5 16 37.5 16 36 17 C36.66 17.680625 37.32 18.36125 38 19.0625 C40.50978123 22.74874118 40.62608836 24.61738151 40 29 C37.86320715 32.38939556 36.8225233 33.72582557 33 35 C30.48658383 35.08467279 28.001081 35.11609535 25.48828125 35.09765625 C24.84258179 35.09664917 24.19688232 35.09564209 23.53161621 35.09460449 C21.12522601 35.08938211 18.71886118 35.07542083 16.3125 35.0625 C10.929375 35.041875 5.54625 35.02125 0 35 C0 23.45 0 11.9 0 0 Z M15 9 C15 10.65 15 12.3 15 14 C19.65052872 14.26932521 19.65052872 14.26932521 24 13 C23.67 11.68 23.34 10.36 23 9 C20.36 9 17.72 9 15 9 Z M15 22 C15 23.32 15 24.64 15 26 C17.97 26 20.94 26 24 26 C24 24.68 24 23.36 24 22 C21.03 22 18.06 22 15 22 Z " fill="#6FA3B0" transform="translate(145,83)"/>
<path d="M0 0 C0.99 0 1.98 0 3 0 C4.68315647 3.22082734 6.34351833 6.45288377 8 9.6875 C8.47695312 10.59951172 8.95390625 11.51152344 9.4453125 12.45117188 C9.89648438 13.33740234 10.34765625 14.22363281 10.8125 15.13671875 C11.23144531 15.94842529 11.65039062 16.76013184 12.08203125 17.59643555 C13.08773675 20.2297256 13.17397942 22.20545561 13 25 C11.234375 24.94140625 11.234375 24.94140625 9 24 C7.56357954 21.63808099 6.38749171 19.43461163 5.25 16.9375 C4.93417969 16.27427734 4.61835938 15.61105469 4.29296875 14.92773438 C3.51588722 13.29115358 2.75624233 11.64631405 2 10 C-1.78739996 21.55379971 -5.47290013 33.13023449 -8.91015625 44.79296875 C-9.15600967 45.62646347 -9.4018631 46.45995819 -9.65516663 47.31871033 C-10.88412624 51.49163805 -12.10513544 55.66674118 -13.31762695 59.84448242 C-13.7715398 61.3937489 -14.22555525 62.94298532 -14.6796875 64.4921875 C-14.88461319 65.20678635 -15.08953888 65.92138519 -15.30067444 66.65763855 C-16.23824297 69.84196407 -17.1411754 72.2117631 -19 75 C-19.99 74.67 -20.98 74.34 -22 74 C-22.11069824 73.41621582 -22.22139648 72.83243164 -22.33544922 72.23095703 C-22.84812467 69.52887466 -23.36155914 66.82693703 -23.875 64.125 C-24.04902344 63.2071875 -24.22304687 62.289375 -24.40234375 61.34375 C-25.5663759 55.22180312 -26.76934832 49.10891059 -28 43 C-30.64 47.62 -33.28 52.24 -36 57 C-37.32 56.67 -38.64 56.34 -40 56 C-40.08564209 55.39937744 -40.17128418 54.79875488 -40.25952148 54.17993164 C-40.64788015 51.47348342 -41.04260329 48.76800164 -41.4375 46.0625 C-41.57220703 45.11697266 -41.70691406 44.17144531 -41.84570312 43.19726562 C-41.97783203 42.29814453 -42.10996094 41.39902344 -42.24609375 40.47265625 C-42.36654053 39.64000244 -42.4869873 38.80734863 -42.61108398 37.94946289 C-42.81183994 36.00312641 -42.81183994 36.00312641 -44 35 C-45.65 38.63 -47.3 42.26 -49 46 C-58.9 46 -68.8 46 -79 46 C-79 44.68 -79 43.36 -79 42 C-70.42 41.67 -61.84 41.34 -53 41 C-50.5327416 35.17237331 -50.5327416 35.17237331 -48.09472656 29.33251953 C-47.77987305 28.60661621 -47.46501953 27.88071289 -47.140625 27.1328125 C-46.82641602 26.38918457 -46.51220703 25.64555664 -46.18847656 24.87939453 C-44.75845185 22.61802841 -43.45311997 21.97495794 -41 21 C-38.93147447 24.50258736 -38.42179085 27.80704007 -37.875 31.8125 C-37.70742187 32.99457031 -37.53984375 34.17664062 -37.3671875 35.39453125 C-37.00427967 38.95797724 -36.93584279 42.42094402 -37 46 C-36.34 46 -35.68 46 -35 46 C-34.773125 45.360625 -34.54625 44.72125 -34.3125 44.0625 C-32.51434174 39.86679739 -30.26095979 35.96099444 -28 32 C-26.68 32.33 -25.36 32.66 -24 33 C-23.82609741 34.02154175 -23.82609741 34.02154175 -23.64868164 35.0637207 C-23.12238484 38.14706773 -22.59248493 41.22978486 -22.0625 44.3125 C-21.78889648 45.9202832 -21.78889648 45.9202832 -21.50976562 47.56054688 C-21.33251953 48.58857422 -21.15527344 49.61660156 -20.97265625 50.67578125 C-20.81031494 51.62364502 -20.64797363 52.57150879 -20.48071289 53.5480957 C-20.03028628 56.12213911 -20.03028628 56.12213911 -19 59 C-18.68719589 57.95763435 -18.68719589 57.95763435 -18.36807251 56.89421082 C-16.40173144 50.3449482 -14.43059021 43.79714777 -12.45405006 37.25095654 C-11.43806619 33.88546231 -10.4239452 30.51943012 -9.4140625 27.15209961 C-8.25292054 23.28070949 -7.08371429 19.4117964 -5.9140625 15.54296875 C-5.55253082 14.33352097 -5.19099915 13.12407318 -4.81851196 11.87797546 C-4.47831024 10.75703995 -4.13810852 9.63610443 -3.78759766 8.48120117 C-3.49003571 7.49302902 -3.19247375 6.50485687 -2.88589478 5.48674011 C-2 3 -2 3 0 0 Z " fill="#8EB5BE" transform="translate(228,5)"/>
<path d="M0 0 C5.28 0 10.56 0 16 0 C18.31 6.6 20.62 13.2 23 20 C25.31 13.4 27.62 6.8 30 0 C35.28 0 40.56 0 46 0 C41.66229228 11.82025352 36.95646326 23.42653249 32 35 C26.06 35 20.12 35 14 35 C12.00456369 30.17684719 10.0101857 25.35328574 8.01855469 20.52856445 C7.34014989 18.88605081 6.6611145 17.24379748 5.98144531 15.60180664 C5.00681855 13.24693222 4.03443447 10.89114291 3.0625 8.53515625 C2.75626709 7.79660904 2.45003418 7.05806183 2.13452148 6.2971344 C0 1.11387171 0 1.11387171 0 0 Z " fill="#72A6B2" transform="translate(3,83)"/>
<path d="M0 0 C1.29550781 -0.02578125 2.59101563 -0.0515625 3.92578125 -0.078125 C8.80796353 0.34773514 12.0341469 1.60017217 15.51953125 5.078125 C16.97721087 7.78872656 17.19269948 9.93735121 17.375 13 C17.44074219 13.98484375 17.50648438 14.9696875 17.57421875 15.984375 C17.63029297 17.10585937 17.63029297 17.10585937 17.6875 18.25 C19.0075 18.58 20.3275 18.91 21.6875 19.25 C22.1825 22.22 22.1825 22.22 22.6875 25.25 C19.58748878 27.05116392 17.26267903 27.5461501 13.6875 27.5625 C12.841875 27.57925781 11.99625 27.59601563 11.125 27.61328125 C8.23419465 27.18244007 6.85923725 26.15529726 4.6875 24.25 C3.7903125 24.7140625 3.7903125 24.7140625 2.875 25.1875 C-2.16984162 27.63785164 -6.80201129 27.72458754 -12.3125 27.25 C-15.375 26.125 -15.375 26.125 -17.3125 24.25 C-18.375 21.375 -18.375 21.375 -18.3125 18.25 C-16.54210551 15.50283613 -15.24958156 13.71854078 -12.3125 12.25 C-13.9625 11.26 -15.6125 10.27 -17.3125 9.25 C-17.1875 7.5 -17.1875 7.5 -16.3125 5.25 C-10.76891617 1.03205578 -6.88273377 0.08169417 0 0 Z M-7.3125 10.25 C-3.61831799 11.481394 -1.1068739 10.89432764 2.6875 10.25 C2.6875 9.59 2.6875 8.93 2.6875 8.25 C-1.16895121 8.02963136 -3.80473216 8.64644899 -7.3125 10.25 Z M-4.3125 18.25 C-1.30218256 19.18423645 -0.44599732 19.29449911 2.6875 18.25 C2.6875 17.59 2.6875 16.93 2.6875 16.25 C-0.41801666 16.25 -1.66511084 16.7893715 -4.3125 18.25 Z " fill="#82AFB9" transform="translate(265.3125,91.75)"/>
<path d="M0 0 C4.54007634 3.23043893 4.54007634 3.23043893 5.25 7.3125 C5.3834454 10.6537674 5.36678677 13.97110064 5.25 17.3125 C6.57 16.9825 7.89 16.6525 9.25 16.3125 C9.745 19.7775 9.745 19.7775 10.25 23.3125 C6.01512617 26.13574922 2.22835775 25.87344172 -2.75 25.3125 C-3.8225 24.755625 -4.895 24.19875 -6 23.625 C-6.9075 23.191875 -7.815 22.75875 -8.75 22.3125 C-10.76800895 23.27564063 -12.76549844 24.28208573 -14.75 25.3125 C-19.62302925 26.01873612 -23.472809 25.97663932 -27.875 23.6875 C-29.75 21.3125 -29.75 21.3125 -30.375 18.4375 C-29.52434798 14.18423988 -27.72059025 12.43161977 -24.75 9.3125 C-26.4 8.3225 -28.05 7.3325 -29.75 6.3125 C-22.94185923 -2.89851398 -10.57171058 -4.7824405 0 0 Z M-19.75 8.3125 C-15.93243176 9.68682457 -12.67744671 8.99225039 -8.75 8.3125 C-9.08 7.6525 -9.41 6.9925 -9.75 6.3125 C-13.60645121 6.09213136 -16.24223216 6.70894899 -19.75 8.3125 Z M-15.75 15.3125 C-15.75 15.9725 -15.75 16.6325 -15.75 17.3125 C-12.77934491 16.97022428 -12.77934491 16.97022428 -9.75 16.3125 C-9.42 15.6525 -9.09 14.9925 -8.75 14.3125 C-11.37113708 14.3125 -13.25935112 14.62542445 -15.75 15.3125 Z " fill="#71A4B1" transform="translate(130.75,93.6875)"/>
<path d="M0 0 C1.175625 -0.01675781 2.35125 -0.03351563 3.5625 -0.05078125 C8.08912089 0.42760028 11.13120394 2.01749207 14.83203125 4.58203125 C16.64480878 7.26785214 16.52933742 9.8051158 16.6875 13 C16.78611328 14.76923828 16.78611328 14.76923828 16.88671875 16.57421875 C16.94279297 17.92966797 16.94279297 17.92966797 17 19.3125 C17.99 18.9825 18.98 18.6525 20 18.3125 C21.36741555 20.56471384 22.04066478 21.83807758 21.8125 24.5 C21.544375 25.098125 21.27625 25.69625 21 26.3125 C16.95991031 27.65919656 13.22858917 27.77023388 9 27.3125 C7.948125 26.755625 6.89625 26.19875 5.8125 25.625 C4.884375 25.191875 3.95625 24.75875 3 24.3125 C0.98199105 25.27564063 -1.01549844 26.28208573 -3 27.3125 C-7.99089642 27.88288816 -12.66397546 28.12095353 -17 25.3125 C-18.4375 22.5 -18.4375 22.5 -19 19.3125 C-17.46079825 15.74803279 -16.25728341 14.48402227 -13 12.3125 C-14.65 10.6625 -16.3 9.0125 -18 7.3125 C-12.62549991 1.30570578 -7.94601449 0.02613821 0 0 Z M-8 10.3125 C-5.00468461 11.31093846 -3.82744268 11.31982761 -0.8125 10.875 C0.445625 10.689375 1.70375 10.50375 3 10.3125 C2.67 9.6525 2.34 8.9925 2 8.3125 C-1.90432869 8.3125 -4.38026598 8.99623308 -8 10.3125 Z M-5 17.3125 C-4.67 17.9725 -4.34 18.6325 -4 19.3125 C-2.02 18.9825 -0.04 18.6525 2 18.3125 C2 17.6525 2 16.9925 2 16.3125 C-0.42797311 16.3125 -2.62907005 16.81335685 -5 17.3125 Z " fill="#75A7B4" transform="translate(206,91.6875)"/>
<path d="M0 0 C6.08622451 4.36959708 6.08622451 4.36959708 6.9375 7.71484375 C7.72685835 13.17128331 7.72685835 13.17128331 6.4375 15.75 C5.4475 16.08 4.4575 16.41 3.4375 16.75 C3.953125 17.348125 4.46875 17.94625 5 18.5625 C5.474375 19.284375 5.94875 20.00625 6.4375 20.75 C5.9425 22.235 5.9425 22.235 5.4375 23.75 C-1.60422804 26.90080324 -10.84173552 27.16344423 -18.2109375 24.95703125 C-21.47872158 23.3717308 -24.17681259 21.47160317 -26.5625 18.75 C-27.81633575 14.98849274 -28.31769945 11.63998961 -27.5625 7.75 C-21.76001539 -2.25831238 -10.4042507 -3.65061428 0 0 Z M-13.5625 7.75 C-13.5625 8.41 -13.5625 9.07 -13.5625 9.75 C-11.2525 9.75 -8.9425 9.75 -6.5625 9.75 C-6.8925 8.76 -7.2225 7.77 -7.5625 6.75 C-11.3388932 6.4518576 -11.3388932 6.4518576 -13.5625 7.75 Z M-12.5625 15.75 C-10.63377924 18.11401384 -10.63377924 18.11401384 -7.1875 18 C-3.36057692 17.96955128 -3.36057692 17.96955128 0.4375 15.75 C-3.8525 15.75 -8.1425 15.75 -12.5625 15.75 Z " fill="#72A5B1" transform="translate(392.5625,93.25)"/>
<path d="M0 0 C2.8100346 1.79363911 4.50940468 3.01880935 6 6 C6.08372659 7.52148326 6.10730027 9.04655778 6.09765625 10.5703125 C6.09443359 11.46621094 6.09121094 12.36210938 6.08789062 13.28515625 C6.07532227 14.69087891 6.07532227 14.69087891 6.0625 16.125 C6.05798828 17.06988281 6.05347656 18.01476562 6.04882812 18.98828125 C6.03702375 21.3255477 6.01908799 23.66278169 6 26 C1.71 26 -2.58 26 -7 26 C-7.06058594 25.01257813 -7.12117188 24.02515625 -7.18359375 23.0078125 C-7.30927734 21.08582031 -7.30927734 21.08582031 -7.4375 19.125 C-7.55931641 17.21074219 -7.55931641 17.21074219 -7.68359375 15.2578125 C-7.79206027 12.11699848 -7.79206027 12.11699848 -9 10 C-10.32 10.33 -11.64 10.66 -13 11 C-13.33 15.95 -13.66 20.9 -14 26 C-18.62 26 -23.24 26 -28 26 C-28 17.75 -28 9.5 -28 1 C-24.04 1 -20.08 1 -16 1 C-15.34 1.99 -14.68 2.98 -14 4 C-13.566875 3.525625 -13.13375 3.05125 -12.6875 2.5625 C-9.19446448 -0.67179215 -4.5182486 -0.66056266 0 0 Z " fill="#6FA3B0" transform="translate(318,92)"/>
<path d="M0 0 C0.33 2.64 0.66 5.28 1 8 C6.445 8.495 6.445 8.495 12 9 C12 11.97 12 14.94 12 18 C8.04 18 4.08 18 0 18 C0.33 20.31 0.66 22.62 1 25 C4.46941546 24.54177532 7.67395049 24.10868317 11 23 C11.66 25.97 12.32 28.94 13 32 C7.26224501 35.93446057 0.76200105 35.86323418 -6 35 C-9.50030928 33.31630693 -10.819575 32.2706375 -13 29 C-13.1953125 26.30078125 -13.1953125 26.30078125 -13.125 23.3125 C-13.10695313 22.31863281 -13.08890625 21.32476562 -13.0703125 20.30078125 C-13.04710938 19.54152344 -13.02390625 18.78226563 -13 18 C-13.804375 18.020625 -14.60875 18.04125 -15.4375 18.0625 C-18 18 -18 18 -19 17 C-19.14115161 14.32941149 -19.04247107 11.67567762 -19 9 C-17.35 8.67 -15.7 8.34 -14 8 C-13.67 6.02 -13.34 4.04 -13 2 C-11.58461283 1.66127487 -10.16762037 1.32925376 -8.75 1 C-7.56664063 0.7215625 -7.56664063 0.7215625 -6.359375 0.4375 C-4 0 -4 0 0 0 Z " fill="#6FA3B1" transform="translate(86,84)"/>
<path d="M0 0 C2.96536069 2.28104669 4.63243436 4.61199672 6.4375 7.875 C6.4375 8.535 6.4375 9.195 6.4375 9.875 C3.7975 10.535 1.1575 11.195 -1.5625 11.875 C1.7375 12.535 5.0375 13.195 8.4375 13.875 C7.11521571 19.56082243 5.03494698 21.5911093 0.4375 24.875 C-2.99241538 26.01830513 -5.7611416 26.07881651 -9.375 26.125 C-11.17904297 26.16367188 -11.17904297 26.16367188 -13.01953125 26.203125 C-18.80121311 25.66766604 -22.8424084 23.28399745 -26.5625 18.875 C-28.05392111 14.40073668 -28.30520548 10.55585977 -26.375 6.1875 C-19.78593363 -2.21923985 -9.84870686 -3.11011795 0 0 Z M-11.5625 7.875 C-13.8116908 9.70203227 -13.8116908 9.70203227 -13.8125 12.375 C-13.8116908 15.04796773 -13.8116908 15.04796773 -11.5625 16.875 C-8.46323181 16.55301034 -8.46323181 16.55301034 -5.5625 15.875 C-5.2325 14.555 -4.9025 13.235 -4.5625 11.875 C-5.2225 11.875 -5.8825 11.875 -6.5625 11.875 C-7.2225 10.555 -7.8825 9.235 -8.5625 7.875 C-9.5525 7.875 -10.5425 7.875 -11.5625 7.875 Z " fill="#72A6B3" transform="translate(354.5625,93.125)"/>
<path d="M0 0 C0.86625 0.37125 1.7325 0.7425 2.625 1.125 C3.40875 1.41375 4.1925 1.7025 5 2 C5.99 1.34 6.98 0.68 8 0 C11.09115927 0.19319745 13.24171368 0.47704392 15.8125 2.25 C17.38141982 4.56209237 17.80069945 6.20979236 18 9 C16.66275831 14.0124995 13.51004355 16.84191898 9.875 20.3125 C9.03001953 21.13717773 9.03001953 21.13717773 8.16796875 21.97851562 C6.78537942 23.32595438 5.39359084 24.66394273 4 26 C1.64302087 24.02601003 -0.68281614 22.02058433 -3 20 C-3.87398437 19.28070313 -3.87398437 19.28070313 -4.765625 18.546875 C-7.74463886 15.91493072 -9.36832974 13.91591667 -10.0625 9.9375 C-9.99717699 5.82215017 -9.573522 4.14541578 -7 1 C-4.44744228 -0.27627886 -2.84227731 -0.19829842 0 0 Z " fill="#6FA4B0" transform="translate(238,36)"/>
<path d="M0 0 C4.29 0 8.58 0 13 0 C13 11.88 13 23.76 13 36 C8.71 36 4.42 36 0 36 C0 24.12 0 12.24 0 0 Z " fill="#6FA3AF" transform="translate(231,82)"/>
<path d="M0 0 C2.97 0.495 2.97 0.495 6 1 C6.33 5.29 6.66 9.58 7 14 C8.32 14.33 9.64 14.66 11 15 C11.042721 16.66611905 11.04063832 18.33382885 11 20 C9.34346314 21.65653686 7.39349204 21.17106165 5.125 21.1875 C4.24070312 21.20167969 3.35640625 21.21585938 2.4453125 21.23046875 C0 21 0 21 -3 19 C-3.33 18.01 -3.66 17.02 -4 16 C-4.66 16 -5.32 16 -6 16 C-6 15.34 -6 14.68 -6 14 C-6.99 14.33 -7.98 14.66 -9 15 C-9 14.34 -9 13.68 -9 13 C-7.68 13 -6.36 13 -5 13 C-5 11.68 -5 10.36 -5 9 C-7.97 9 -10.94 9 -14 9 C-13.37158027 12.9714169 -13.37158027 12.9714169 -11 15 C-11.66 16.32 -12.32 17.64 -13 19 C-18.75 19.125 -18.75 19.125 -21 18 C-21 17.34 -21 16.68 -21 16 C-21.99 16.33 -22.98 16.66 -24 17 C-25 16 -25 16 -25.375 13.625 C-25 11 -25 11 -22.75 9.1875 C-20 8 -20 8 -16 8 C-15.67 7.34 -15.34 6.68 -15 6 C-11.39664558 5.13969913 -7.77286306 4.52243048 -4.125 3.87890625 C-3.09375 3.58886719 -2.0625 3.29882812 -1 3 C-0.67 2.01 -0.34 1.02 0 0 Z " fill="#6CA2AF" transform="translate(274,98)"/>
<path d="M0 0 C4.62 0 9.24 0 14 0 C14 8.25 14 16.5 14 25 C9.38 25 4.76 25 0 25 C0 16.75 0 8.5 0 0 Z " fill="#68A0AD" transform="translate(51,93)"/>
<path d="M0 0 C2.25157667 1.08409247 4.26128523 2.18360583 6.3125 3.625 C9.77841649 5.3982596 12.15576766 5.42713693 16 5 C17.94369738 3.64570159 17.94369738 3.64570159 19 2 C19.33 3.32 19.66 4.64 20 6 C17.36 6.66 14.72 7.32 12 8 C15.3 8.66 18.6 9.32 22 10 C20.67771571 15.68582243 18.59744698 17.7161093 14 21 C10.57008462 22.14330513 7.8013584 22.20381651 4.1875 22.25 C2.38345703 22.28867188 2.38345703 22.28867188 0.54296875 22.328125 C-3.28988045 21.9731533 -5.69715027 20.92202587 -9 19 C-9 18.34 -9 17.68 -9 17 C-7.88625 16.71125 -6.7725 16.4225 -5.625 16.125 C-1.99708908 15.30758671 -1.99708908 15.30758671 0 13 C-0.66 12.67 -1.32 12.34 -2 12 C-2 11.01 -2 10.02 -2 9 C-2.66 8.67 -3.32 8.34 -4 8 C-3.67 6.35 -3.34 4.7 -3 3 C-1.35 3.33 0.3 3.66 2 4 C1.34 2.68 0.68 1.36 0 0 Z M2 4 C-0.2491908 5.82703227 -0.2491908 5.82703227 -0.25 8.5 C-0.2491908 11.17296773 -0.2491908 11.17296773 2 13 C5.09926819 12.67801034 5.09926819 12.67801034 8 12 C8.33 10.68 8.66 9.36 9 8 C8.34 8 7.68 8 7 8 C6.34 6.68 5.68 5.36 5 4 C4.01 4 3.02 4 2 4 Z " fill="#7CAAB6" transform="translate(341,97)"/>
<path d="M0 0 C2.20914 3.31371 2.22481553 4.3446021 2.125 8.1875 C2.10695312 9.08855469 2.08890625 9.98960938 2.0703125 10.91796875 C2.04710937 11.60503906 2.02390625 12.29210937 2 13 C3.32 12.67 4.64 12.34 6 12 C6.495 15.465 6.495 15.465 7 19 C2.76512617 21.82324922 -1.02164225 21.56094172 -6 21 C-7.0725 20.443125 -8.145 19.88625 -9.25 19.3125 C-10.1575 18.879375 -11.065 18.44625 -12 18 C-14.01800895 18.96314063 -16.01549844 19.96958573 -18 21 C-21.36966322 21.42714041 -24.64827854 21.58842614 -28 21 C-29.80078125 19.4765625 -29.80078125 19.4765625 -31 18 C-28.69 18 -26.38 18 -24 18 C-24 15.69 -24 13.38 -24 11 C-22.68 11 -21.36 11 -20 11 C-20 10.34 -20 9.68 -20 9 C-18.35 9.33 -16.7 9.66 -15 10 C-16.32 10.33 -17.64 10.66 -19 11 C-19 11.66 -19 12.32 -19 13 C-17.02 12.34 -15.04 11.68 -13 11 C-13.33 10.34 -13.66 9.68 -14 9 C-13.01 9 -12.02 9 -11 9 C-11 9.99 -11 10.98 -11 12 C-10.34 12 -9.68 12 -9 12 C-8.67 11.34 -8.34 10.68 -8 10 C-6 10 -4 10 -2 10 C-1.34 6.7 -0.68 3.4 0 0 Z " fill="#77A8B4" transform="translate(134,98)"/>
<path d="M0 0 C2.48046875 1.01953125 2.48046875 1.01953125 5 3 C5.38060051 5.78599571 5.47962905 7.93372751 5.3125 10.6875 C5.28994141 11.38939453 5.26738281 12.09128906 5.24414062 12.81445312 C5.18531647 14.5438833 5.09563389 16.27221438 5 18 C6.98 18.33 8.96 18.66 11 19 C11 19.99 11 20.98 11 22 C8.22947819 22.92350727 6.43311242 23.16329585 3.5625 23.1875 C2.80066406 23.20167969 2.03882813 23.21585938 1.25390625 23.23046875 C-1.23347315 22.97612666 -2.84808106 22.24017196 -5 21 C-4.67 19.02 -4.34 17.04 -4 15 C-5.98491642 15.26676204 -5.98491642 15.26676204 -8 16 C-8.33 16.99 -8.66 17.98 -9 19 C-10.65 19 -12.3 19 -14 19 C-14 19.66 -14 20.32 -14 21 C-15.32 20.67 -16.64 20.34 -18 20 C-17.505 19.525625 -17.01 19.05125 -16.5 18.5625 C-14.88457803 17.24076302 -14.88457803 17.24076302 -15 16 C-13.02 15.67 -11.04 15.34 -9 15 C-8.67 14.01 -8.34 13.02 -8 12 C-9.65 11.67 -11.3 11.34 -13 11 C-13.33 9.68 -13.66 8.36 -14 7 C-12.39125 7.061875 -12.39125 7.061875 -10.75 7.125 C-6.50919316 7.00575681 -6.50919316 7.00575681 -3 5 C-1.79117904 2.99983534 -1.79117904 2.99983534 -1 1 C-0.67 0.67 -0.34 0.34 0 0 Z M-4 13 C-3 15 -3 15 -3 15 Z " fill="#69A1AE" transform="translate(216,96)"/>
<path d="M0 0 C0.66 0.99 1.32 1.98 2 3 C3.32 2.67 4.64 2.34 6 2 C6 3.32 6 4.64 6 6 C5.34 6.66 4.68 7.32 4 8 C3.01 8 2.02 8 1 8 C1 13.28 1 18.56 1 24 C-2.3 24 -5.6 24 -9 24 C-9.80246854 20.79012584 -10.11934909 18.66366478 -10.09765625 15.453125 C-10.09443359 14.60878906 -10.09121094 13.76445313 -10.08789062 12.89453125 C-10.07951172 12.02183594 -10.07113281 11.14914063 -10.0625 10.25 C-10.05798828 9.36183594 -10.05347656 8.47367188 -10.04882812 7.55859375 C-10.037074 5.37232671 -10.02064249 3.18619821 -10 1 C-6.55773184 0.07610119 -3.58133677 -0.31142059 0 0 Z " fill="#6CA1AE" transform="translate(302,93)"/>
<path d="M0 0 C1.546875 0.99 1.546875 0.99 3.125 2 C2.795 2.66 2.465 3.32 2.125 4 C1.568125 3.731875 1.01125 3.46375 0.4375 3.1875 C-0.325625 3.125625 -1.08875 3.06375 -1.875 3 C-2.6175 3.825 -3.36 4.65 -4.125 5.5 C-6.875 8 -6.875 8 -8.83203125 8.04296875 C-10.8476112 7.70267603 -12.86135963 7.351588 -14.875 7 C-17.12660856 7.70834575 -17.12660856 7.70834575 -18.875 9 C-21 10.1875 -21 10.1875 -22.875 11 C-25.75895737 9.55802132 -27.64025152 7.29355765 -29.875 5 C-22.53785694 -3.20033636 -9.9465049 -5.00877568 0 0 Z " fill="#86B2BD" transform="translate(130.875,94)"/>
<path d="M0 0 C0.33 1.98 0.66 3.96 1 6 C2.98 6 4.96 6 7 6 C5.72553565 8.5489287 4.53636507 8.80641644 2 10 C1.01 10.66 0.02 11.32 -1 12 C-0.34 12.33 0.32 12.66 1 13 C1 12.34 1 11.68 1 11 C1.763125 10.896875 2.52625 10.79375 3.3125 10.6875 C6.21894395 9.94399108 7.03566029 9.15141968 9 7 C9.66 7 10.32 7 11 7 C11.33 7.99 11.66 8.98 12 10 C11.34 10 10.68 10 10 10 C9.67 10.66 9.34 11.32 9 12 C3.43963864 15.07594458 -1.67957835 15.81519676 -8 15 C-11.21481601 13.77314442 -11.81899602 13.35413821 -13.4375 10.1875 C-14 7 -14 7 -13 4.25 C-9.4318967 0.23588379 -5.18846031 -0.30520355 0 0 Z " fill="#7BAAB5" transform="translate(201,104)"/>
<path d="M0 0 C0.33 2.64 0.66 5.28 1 8 C6.445 8.495 6.445 8.495 12 9 C12 11.97 12 14.94 12 18 C8.04 18 4.08 18 0 18 C0.33 20.31 0.66 22.62 1 25 C0.34 24.67 -0.32 24.34 -1 24 C-1 21.69 -1 19.38 -1 17 C1.40545638 15.79727181 2.94996953 15.89928528 5.625 15.9375 C6.85089844 15.95103516 6.85089844 15.95103516 8.1015625 15.96484375 C9.04128906 15.98224609 9.04128906 15.98224609 10 16 C10 14.02 10 12.04 10 10 C9.21753906 10.01160156 8.43507813 10.02320312 7.62890625 10.03515625 C6.61699219 10.04417969 5.60507813 10.05320312 4.5625 10.0625 C3.55316406 10.07410156 2.54382813 10.08570312 1.50390625 10.09765625 C-1 10 -1 10 -2 9 C-2.04080783 7.00041636 -2.04254356 4.99954746 -2 3 C-6.455 4.485 -6.455 4.485 -11 6 C-11 6.66 -11 7.32 -11 8 C-10.34 8 -9.68 8 -9 8 C-7.28949441 12.97601626 -8.99114353 16.42616295 -11 21 C-11.66 20.67 -12.32 20.34 -13 20 C-13 19.34 -13 18.68 -13 18 C-13.804375 18.020625 -14.60875 18.04125 -15.4375 18.0625 C-18 18 -18 18 -19 17 C-19.14115161 14.32941149 -19.04247107 11.67567762 -19 9 C-17.35 8.67 -15.7 8.34 -14 8 C-13.67 6.02 -13.34 4.04 -13 2 C-11.58461283 1.66127487 -10.16762037 1.32925376 -8.75 1 C-7.56664063 0.7215625 -7.56664063 0.7215625 -6.359375 0.4375 C-4 0 -4 0 0 0 Z " fill="#75A5AE" transform="translate(86,84)"/>
<path d="M0 0 C6.08622451 4.36959708 6.08622451 4.36959708 6.9375 7.71484375 C7.72685835 13.17128331 7.72685835 13.17128331 6.4375 15.75 C5.4475 16.08 4.4575 16.41 3.4375 16.75 C3.953125 17.348125 4.46875 17.94625 5 18.5625 C5.474375 19.284375 5.94875 20.00625 6.4375 20.75 C6.1075 21.74 5.7775 22.73 5.4375 23.75 C3.4575 24.08 1.4775 24.41 -0.5625 24.75 C-0.8925 24.09 -1.2225 23.43 -1.5625 22.75 C0.0875 22.75 1.7375 22.75 3.4375 22.75 C3.4375 21.43 3.4375 20.11 3.4375 18.75 C1.1275 18.42 -1.1825 18.09 -3.5625 17.75 C-3.5625 17.42 -3.5625 17.09 -3.5625 16.75 C-6.8625 16.75 -10.1625 16.75 -13.5625 16.75 C-13.5625 16.09 -13.5625 15.43 -13.5625 14.75 C-7.53653427 13.6787172 -1.67340483 13.65054585 4.4375 13.75 C3.7775 11.11 3.1175 8.47 2.4375 5.75 C0.1275 5.42 -2.1825 5.09 -4.5625 4.75 C-4.5625 3.76 -4.5625 2.77 -4.5625 1.75 C-6.62433633 1.66849256 -8.68711349 1.6105806 -10.75 1.5625 C-11.89855469 1.52769531 -13.04710937 1.49289063 -14.23046875 1.45703125 C-17.85320624 1.77556034 -19.56271673 2.80520268 -22.5625 4.75 C-23.2225 4.42 -23.8825 4.09 -24.5625 3.75 C-17.43973282 -2.21772385 -8.8424745 -3.10262263 0 0 Z " fill="#83ACB4" transform="translate(392.5625,93.25)"/>
<path d="M0 0 C3.3 0 6.6 0 10 0 C10 0.99 10 1.98 10 3 C12.97 3.495 12.97 3.495 16 4 C18 10.75 18 10.75 18 13 C11.29980211 13.70132913 4.73742646 14.11044961 -2 14 C-1.34 12.68 -0.68 11.36 0 10 C2.64 10 5.28 10 8 10 C7.67 8.35 7.34 6.7 7 5 C4.36 5 1.72 5 -1 5 C-0.67 3.35 -0.34 1.7 0 0 Z " fill="#67A0AE" transform="translate(379,94)"/>
<path d="M0 0 C1.39935013 2.79870027 1.25265405 4.90498792 1 8 C-0.55241581 10.36947677 -1.69922484 10.89710324 -4.375 11.8125 C-7.49285425 12.03520387 -9.25170913 11.45048685 -12 10 C-13.39935013 7.20129973 -13.25265405 5.09501208 -13 2 C-9.34978762 -3.04076948 -5.32182517 -1.87249404 0 0 Z " fill="#7AA9B5" transform="translate(64,80)"/>
<path d="M0 0 C1.65 0.33 3.3 0.66 5 1 C3.68 1.33 2.36 1.66 1 2 C1 2.66 1 3.32 1 4 C2.98 3.34 4.96 2.68 7 2 C6.67 1.34 6.34 0.68 6 0 C6.99 0 7.98 0 9 0 C8.67 2.31 8.34 4.62 8 7 C9.32 7.33 10.64 7.66 12 8 C12 8.66 12 9.32 12 10 C11.195625 9.6596875 11.195625 9.6596875 10.375 9.3125 C7.85563409 8.74316535 7.85563409 8.74316535 5.375 10.4375 C0.97469581 12.47467787 -3.2094462 12.84102666 -8 12 C-9.80078125 10.4765625 -9.80078125 10.4765625 -11 9 C-8.69 9 -6.38 9 -4 9 C-4 6.69 -4 4.38 -4 2 C-2.68 2 -1.36 2 0 2 C0 1.34 0 0.68 0 0 Z " fill="#85B1BB" transform="translate(114,107)"/>
<path d="M0 0 C0.91007813 0.00902344 1.82015625 0.01804687 2.7578125 0.02734375 C3.45648438 0.03894531 4.15515625 0.05054687 4.875 0.0625 C4.875 0.3925 4.875 0.7225 4.875 1.0625 C3.92625 1.330625 2.9775 1.59875 2 1.875 C-1.37767273 2.81236588 -1.37767273 2.81236588 -3.125 6.0625 C-2.465 6.3925 -1.805 6.7225 -1.125 7.0625 C-0.465 7.7225 0.195 8.3825 0.875 9.0625 C5.53124995 8.65234222 5.53124995 8.65234222 9.875 7.0625 C9.545 8.3825 9.215 9.7025 8.875 11.0625 C7.225 11.0625 5.575 11.0625 3.875 11.0625 C3.875 12.0525 3.875 13.0425 3.875 14.0625 C4.535 14.7225 5.195 15.3825 5.875 16.0625 C4.225 16.0625 2.575 16.0625 0.875 16.0625 C0.875 14.4125 0.875 12.7625 0.875 11.0625 C-0.341875 11.35125 -1.55875 11.64 -2.8125 11.9375 C-5.01171875 12.23828125 -5.01171875 12.23828125 -7.125 12.0625 C-9.41759828 10.29267948 -10.512443 8.53172791 -12.125 6.0625 C-6.14123377 -0.07873377 -6.14123377 -0.07873377 0 0 Z " fill="#7EABB6" transform="translate(200.125,92.9375)"/>
<path d="M0 0 C2.5 0.875 2.5 0.875 5 3 C5.46087248 6.36708009 5.28526928 9.62114388 5 13 C3.68 13 2.36 13 1 13 C0.67 13.66 0.34 14.32 0 15 C-0.99 14.34 -1.98 13.68 -3 13 C-3.33 13.99 -3.66 14.98 -4 16 C-4.99 15.67 -5.98 15.34 -7 15 C-7 12.36 -7 9.72 -7 7 C-6.401875 6.773125 -5.80375 6.54625 -5.1875 6.3125 C-2.43648112 4.66188867 -1.47515363 2.8027919 0 0 Z " fill="#68A0AD" transform="translate(129,95)"/>
<path d="M0 0 C3.95099928 -0.0246985 7.90196874 -0.04285923 11.85302734 -0.05493164 C13.85906551 -0.06244036 15.86508202 -0.0751447 17.87109375 -0.08789062 C19.75634766 -0.09272461 19.75634766 -0.09272461 21.6796875 -0.09765625 C23.42354736 -0.10551147 23.42354736 -0.10551147 25.20263672 -0.11352539 C28 0 28 0 30 1 C30 1.99 30 2.98 30 4 C20.1 4 10.2 4 0 4 C0 2.68 0 1.36 0 0 Z " fill="#81AAB4" transform="translate(149,47)"/>
<path d="M0 0 C2.97 0 5.94 0 9 0 C9 1.32 9 2.64 9 4 C7.68 4 6.36 4 5 4 C8.465 5.485 8.465 5.485 12 7 C8.09313307 10.90686693 3.56372364 12.15081355 -1.875 12.25 C-6.03637421 12.18925001 -8.88386219 12.01561724 -12 9 C-12.8125 5.8125 -12.8125 5.8125 -13 3 C-12.34 3 -11.68 3 -11 3 C-10.34 4.32 -9.68 5.64 -9 7 C-8.34 7 -7.68 7 -7 7 C-7 7.66 -7 8.32 -7 9 C-4.36 9.33 -1.72 9.66 1 10 C1 9.34 1 8.68 1 8 C-0.32 7.34 -1.64 6.68 -3 6 C-1.68 5.67 -0.36 5.34 1 5 C0.67 3.35 0.34 1.7 0 0 Z M1 3 C4.01031744 3.93423645 4.86650268 4.04449911 8 3 C8 2.34 8 1.68 8 1 C4.89448334 1 3.64738916 1.5393715 1 3 Z " fill="#8BB5C0" transform="translate(260,107)"/>
<path d="M0 0 C-0.309375 0.598125 -0.61875 1.19625 -0.9375 1.8125 C-2.10209704 4.08956772 -2.10209704 4.08956772 -3 7 C-5.475 6.01 -5.475 6.01 -8 5 C-8.33 5.99 -8.66 6.98 -9 8 C-9.66 8 -10.32 8 -11 8 C-11 8.66 -11 9.32 -11 10 C-16.75 9.125 -16.75 9.125 -19 8 C-18.63926776 5.38469124 -18.20250273 4.20250273 -16.3125 2.3125 C-11.25935464 -0.55550142 -5.64060287 -0.09725177 0 0 Z " fill="#699FAC" transform="translate(267,93)"/>
<path d="M0 0 C1.98 0 3.96 0 6 0 C4.68 0.33 3.36 0.66 2 1 C2.33 8.59 2.66 16.18 3 24 C6.3 24 9.6 24 13 24 C13 18.72 13 13.44 13 8 C15.31 7.34 17.62 6.68 20 6 C20.33 7.65 20.66 9.3 21 11 C20.38125 10.649375 19.7625 10.29875 19.125 9.9375 C18.42375 9.628125 17.7225 9.31875 17 9 C16.01 9.495 16.01 9.495 15 10 C14.68758629 12.54941373 14.48696579 15.00361513 14.375 17.5625 C14.31699219 18.62887695 14.31699219 18.62887695 14.2578125 19.71679688 C14.16328217 21.47742425 14.08054183 23.23867728 14 25 C9.38 25 4.76 25 0 25 C0 16.75 0 8.5 0 0 Z " fill="#A0BFC5" transform="translate(290,93)"/>
<path d="M0 0 C2.49930781 3.12976383 4.36697378 6.37286471 6.1875 9.9375 C6.98220703 11.46697266 6.98220703 11.46697266 7.79296875 13.02734375 C8.9895867 15.9743543 9.25993208 17.86348627 9 21 C7.234375 20.94140625 7.234375 20.94140625 5 20 C3.56357954 17.63808099 2.38749171 15.43461163 1.25 12.9375 C0.93417969 12.27427734 0.61835938 11.61105469 0.29296875 10.92773438 C-0.48411278 9.29115358 -1.24375767 7.64631405 -2 6 C-2.66 6.66 -3.32 7.32 -4 8 C-4.33 6.35 -4.66 4.7 -5 3 C-3.66666667 3 -2.33333333 3 -1 3 C-0.67 2.01 -0.34 1.02 0 0 Z " fill="#8AB4BC" transform="translate(232,9)"/>
<path d="M0 0 C0.99 0 1.98 0 3 0 C1.57142857 15.42857143 1.57142857 15.42857143 -2 19 C-3.66617115 19.04063832 -5.33388095 19.042721 -7 19 C-6.625 16.5625 -6.625 16.5625 -6 14 C-5.34 13.67 -4.68 13.34 -4 13 C-3.3838935 10.74998736 -3.3838935 10.74998736 -3 8.125 C-2.4277221 4.61979783 -2.01953816 3.02930724 0 0 Z " fill="#84AFB8" transform="translate(213,55)"/>
<path d="M0 0 C4.62 0 9.24 0 14 0 C14 8.25 14 16.5 14 25 C13.67 25 13.34 25 13 25 C12.67 17.41 12.34 9.82 12 2 C9.03 2 6.06 2 3 2 C2.95101562 3.32515625 2.90203125 4.6503125 2.8515625 6.015625 C2.77651682 7.76043717 2.70096976 9.50522782 2.625 11.25 C2.5940625 12.12269531 2.563125 12.99539062 2.53125 13.89453125 C2.49257813 14.73886719 2.45390625 15.58320312 2.4140625 16.453125 C2.3826416 17.22817383 2.3512207 18.00322266 2.31884766 18.80175781 C2 21 2 21 0 25 C0 16.75 0 8.5 0 0 Z " fill="#AFC9D1" transform="translate(51,93)"/>
<path d="M0 0 C0.99 0 1.98 0 3 0 C3.33 2.97 3.66 5.94 4 9 C4.66 9 5.32 9 6 9 C6.33 8.34 6.66 7.68 7 7 C7.25 13.625 7.25 13.625 5 17 C3.68 16.67 2.36 16.34 1 16 C-0.12862175 10.63904667 -0.09688221 5.44693314 0 0 Z " fill="#76A5AD" transform="translate(187,45)"/>
<path d="M0 0 C0.68707555 2.49064888 1 4.37886292 1 7 C1.66 6.67 2.32 6.34 3 6 C1.84941444 11.39795989 0.57578241 16.70987333 -1 22 C-1.33 21.34 -1.66 20.68 -2 20 C-3.32 20.33 -4.64 20.66 -6 21 C-4.11380178 13.96354423 -2.13072305 6.96640656 0 0 Z " fill="#90B7C0" transform="translate(218,35)"/>
<path d="M0 0 C0.99 0 1.98 0 3 0 C3 4 3 4 1 6.1875 C0.34 6.785625 -0.32 7.38375 -1 8 C-1 8.33 -1 8.66 -1 9 C-5.62 9 -10.24 9 -15 9 C-15 8.01 -15 7.02 -15 6 C-13.04310963 5.63794536 -11.08442332 5.28558579 -9.125 4.9375 C-8.03445312 4.74027344 -6.94390625 4.54304688 -5.8203125 4.33984375 C-3 4 -3 4 -1 5 C-0.67 3.35 -0.34 1.7 0 0 Z " fill="#64A0AF" transform="translate(173,94)"/>
<path d="M0 0 C1.32 0 2.64 0 4 0 C4.33 2.64 4.66 5.28 5 8 C8.63 8.33 12.26 8.66 16 9 C16 11.97 16 14.94 16 18 C12.04 18 8.08 18 4 18 C4.33 20.31 4.66 22.62 5 25 C4.34 24.67 3.68 24.34 3 24 C3 21.69 3 19.38 3 17 C5.40545638 15.79727181 6.94996953 15.89928528 9.625 15.9375 C10.85089844 15.95103516 10.85089844 15.95103516 12.1015625 15.96484375 C13.04128906 15.98224609 13.04128906 15.98224609 14 16 C14 14.02 14 12.04 14 10 C10.37 10 6.74 10 3 10 C3 7.03 3 4.06 3 1 C2.01 0.67 1.02 0.34 0 0 Z " fill="#A5C3CB" transform="translate(82,84)"/>
<path d="M0 0 C5.28 0 10.56 0 16 0 C14.02 5.28 12.04 10.56 10 16 C9.67 16 9.34 16 9 16 C8.95745644 14.00045254 8.95919217 11.99958364 9 10 C9.33 9.67 9.66 9.34 10 9 C10.04092937 6.66702567 10.04241723 4.33294775 10 2 C4.41499433 2.19898708 4.41499433 2.19898708 0 5 C0 3.35 0 1.7 0 0 Z " fill="#8FB2BB" transform="translate(33,83)"/>
<path d="M0 0 C3.96 0 7.92 0 12 0 C10.35 1.65 8.7 3.3 7 5 C7.99 5.33 8.98 5.66 10 6 C8.33333333 6 6.66666667 6 5 6 C5 6.66 5 7.32 5 8 C2.36 7.67 -0.28 7.34 -3 7 C-2.01 4.69 -1.02 2.38 0 0 Z " fill="#699EAC" transform="translate(338,93)"/>
<path d="M0 0 C1.5625 1.1875 1.5625 1.1875 3 3 C2.6875 5.6875 2.6875 5.6875 2 8 C1.34 8 0.68 8 0 8 C-0.33 9.65 -0.66 11.3 -1 13 C0.65 13 2.3 13 4 13 C3.67 14.65 3.34 16.3 3 18 C1.68 18 0.36 18 -1 18 C-2.54410502 12.37231147 -3.42253572 7.80868754 -2 2 C-1.34 1.34 -0.68 0.68 0 0 Z " fill="#93B8C1" transform="translate(207,61)"/>
<path d="M0 0 C2.56314499 -0.08132187 5.12368418 -0.14064175 7.6875 -0.1875 C8.40873047 -0.21263672 9.12996094 -0.23777344 9.87304688 -0.26367188 C14.47589338 -0.32672457 17.30307233 0.22183542 21 3 C20.67 3.66 20.34 4.32 20 5 C19.4225 4.7525 18.845 4.505 18.25 4.25 C17.5075 4.1675 16.765 4.085 16 4 C13.72855926 5.85432087 13.72855926 5.85432087 12 8 C11.67 7.34 11.34 6.68 11 6 C8.97536745 5.34786708 8.97536745 5.34786708 7 5 C7.33 3.68 7.66 2.36 8 1 C5.36 1 2.72 1 0 1 C0 0.67 0 0.34 0 0 Z " fill="#6A9FAD" transform="translate(113,93)"/>
<path d="M0 0 C3.37565274 1.18604015 5.83780508 2.10069318 8 5 C8.51171875 8.13671875 8.51171875 8.13671875 8.6875 11.6875 C8.78611328 13.45673828 8.78611328 13.45673828 8.88671875 15.26171875 C8.92410156 16.16535156 8.96148437 17.06898437 9 18 C9.99 17.67 10.98 17.34 12 17 C13.0625 18.8125 13.0625 18.8125 14 21 C13.67 21.99 13.34 22.98 13 24 C12.34 23.67 11.68 23.34 11 23 C11 22.34 11 21.68 11 21 C9.68 21 8.36 21 7 21 C6.95101562 19.92878906 6.90203125 18.85757813 6.8515625 17.75390625 C6.77654706 16.35674361 6.7009987 14.9596095 6.625 13.5625 C6.5940625 12.85544922 6.563125 12.14839844 6.53125 11.41992188 C6.42719371 9.60760812 6.22080108 7.80182012 6 6 C5.34 5.67 4.68 5.34 4 5 C3.67 5.66 3.34 6.32 3 7 C3 5.68 3 4.36 3 3 C2.01 3 1.02 3 0 3 C0 2.01 0 1.02 0 0 Z " fill="#9ABBC3" transform="translate(214,93)"/>
<path d="M0 0 C6.6 0 13.2 0 20 0 C19.01 0.66 18.02 1.32 17 2 C17.7734375 2.8971875 17.7734375 2.8971875 18.5625 3.8125 C19.036875 4.534375 19.51125 5.25625 20 6 C19.67 6.99 19.34 7.98 19 9 C17.02 9.33 15.04 9.66 13 10 C12.67 9.34 12.34 8.68 12 8 C13.65 8 15.3 8 17 8 C17 6.68 17 5.36 17 4 C14.69 3.67 12.38 3.34 10 3 C10 2.67 10 2.34 10 2 C6.7 2 3.4 2 0 2 C0 1.34 0 0.68 0 0 Z " fill="#AECBD2" transform="translate(379,108)"/>
<path d="M0 0 C-0.66 1.65 -1.32 3.3 -2 5 C-2.99 5 -3.98 5 -5 5 C-5.33 5.99 -5.66 6.98 -6 8 C-6.99 7.67 -7.98 7.34 -9 7 C-9 10.96 -9 14.92 -9 19 C-11.48386059 15.27420911 -11.3804212 13.41288598 -11 9 C-8.87724902 4.19587935 -5.51517022 0 0 0 Z " fill="#94B9C2" transform="translate(338,93)"/>
<path d="M0 0 C1.49821059 3.37097383 2 5.20442119 2 9 C3.32 8.67 4.64 8.34 6 8 C5.34 9.32 4.68 10.64 4 12 C-0.13621084 8.6189962 -3.81316569 5.33409466 -7 1 C-2.25 0 -2.25 0 0 0 Z " fill="#8EB7BE" transform="translate(238,50)"/>
<path d="M0 0 C0 0.99 0 1.98 0 3 C-3.46222615 4.06723961 -6.64039266 4.10173486 -10.25 4.0625 C-11.32765625 4.05347656 -12.4053125 4.04445313 -13.515625 4.03515625 C-14.33546875 4.02355469 -15.1553125 4.01195313 -16 4 C-15.01 3.67 -14.02 3.34 -13 3 C-13 2.01 -13 1.02 -13 0 C-11.88625 0.020625 -10.7725 0.04125 -9.625 0.0625 C-0.32608696 -0.09782609 -0.32608696 -0.09782609 0 0 Z " fill="#65A1AF" transform="translate(395,113)"/>
<path d="M0 0 C0.66 0 1.32 0 2 0 C1.67 1.32 1.34 2.64 1 4 C-0.65 4 -2.3 4 -4 4 C-4 4.99 -4 5.98 -4 7 C-3.34 7.66 -2.68 8.32 -2 9 C-3.65 9 -5.3 9 -7 9 C-7 7.35 -7 5.7 -7 4 C-9.64 4.33 -12.28 4.66 -15 5 C-15.66 3.68 -16.32 2.36 -17 1 C-15.52093108 0.97310784 -14.04172517 0.95365379 -12.5625 0.9375 C-11.73878906 0.92589844 -10.91507813 0.91429688 -10.06640625 0.90234375 C-8 1 -8 1 -7 2 C-4.66055264 1.71269945 -2.3260857 1.38063221 0 1 C0 0.67 0 0.34 0 0 Z " fill="#9DC2CA" transform="translate(208,100)"/>
<path d="M0 0 C4.3049777 -0.07451364 8.60960734 -0.12877223 12.91503906 -0.16479492 C14.37767075 -0.17982196 15.84025782 -0.20024955 17.30273438 -0.22631836 C19.4128728 -0.26297267 21.52241226 -0.27978676 23.6328125 -0.29296875 C24.90012207 -0.3086792 26.16743164 -0.32438965 27.47314453 -0.34057617 C31.32374962 0.03126338 33.72361228 0.97692742 37 3 C37.495 3.99 37.495 3.99 38 5 C35.40660273 4.55541761 33.14653806 4.0656235 30.73754883 2.98681641 C27.50882976 1.82294568 24.8149579 1.67986186 21.38671875 1.5859375 C20.13955078 1.54726562 18.89238281 1.50859375 17.60742188 1.46875 C16.31384766 1.4378125 15.02027344 1.406875 13.6875 1.375 C12.37458984 1.33632812 11.06167969 1.29765625 9.70898438 1.2578125 C6.47279563 1.16366883 3.23661065 1.07803648 0 1 C0 0.67 0 0.34 0 0 Z " fill="#B0C8CF" transform="translate(145,83)"/>
<path d="M0 0 C0.66 0 1.32 0 2 0 C2.66 1.32 3.32 2.64 4 4 C4.66 4 5.32 4 6 4 C6 4.66 6 5.32 6 6 C9.3 6 12.6 6 16 6 C16 6.99 16 7.98 16 9 C7.24893798 9.45879354 7.24893798 9.45879354 2.9375 7.875 C0.37991175 5.3999146 0.23225633 3.48384489 0 0 Z " fill="#92B9C0" transform="translate(247,110)"/>
<path d="M0 0 C2.8125 2 2.8125 2 5 4 C4.01 4.33 3.02 4.66 2 5 C2 4.34 2 3.68 2 3 C-1.35433109 3.94933899 -4.69246505 4.89748835 -8 6 C-8.33 7.65 -8.66 9.3 -9 11 C-9.33 11 -9.66 11 -10 11 C-9.51392405 3.58734177 -9.51392405 3.58734177 -7.25 1 C-4.48664718 -0.22815681 -2.99448471 -0.51125349 0 0 Z " fill="#97BCC2" transform="translate(238,36)"/>
<path d="M0 0 C0.99 0 1.98 0 3 0 C3.66 2.64 4.32 5.28 5 8 C3.33333333 8 1.66666667 8 0 8 C-0.33 9.32 -0.66 10.64 -1 12 C-2.87643761 10.12356239 -2.17984987 7.50194299 -2.23046875 5.0078125 C-2 3 -2 3 0 0 Z " fill="#80AAB4" transform="translate(228,5)"/>
<path d="M0 0 C2.25157667 1.08409247 4.26128523 2.18360583 6.3125 3.625 C9.77841649 5.3982596 12.15576766 5.42713693 16 5 C17.94369738 3.64570159 17.94369738 3.64570159 19 2 C19.33 3.32 19.66 4.64 20 6 C16.37 6.99 12.74 7.98 9 9 C7.68 7.68 6.36 6.36 5 5 C4.01 4.67 3.02 4.34 2 4 C0.8125 1.9375 0.8125 1.9375 0 0 Z " fill="#A1C3CA" transform="translate(341,97)"/>
<path d="M0 0 C0.66 0 1.32 0 2 0 C2.29341888 5.67276511 2.00559652 8.99067246 -1 14 C-1.66 13.67 -2.32 13.34 -3 13 C-2.88490339 11.58249437 -2.75746342 10.16598831 -2.625 8.75 C-2.55539063 7.96109375 -2.48578125 7.1721875 -2.4140625 6.359375 C-1.98492887 3.914123 -1.21399362 2.15163097 0 0 Z " fill="#79A5AF" transform="translate(221,29)"/>
<path d="M0 0 C0.3125 3.3125 0.3125 3.3125 0 7 C-2.5 8.9375 -2.5 8.9375 -5 10 C-6.33898305 4.6440678 -6.33898305 4.6440678 -4.75 1.625 C-3 0 -3 0 0 0 Z " fill="#7BA8B5" transform="translate(187,29)"/>
<path d="M0 0 C3.875 1.75 3.875 1.75 5 4 C5.40423599 8.28490153 5.45828448 10.32689468 3 13.9375 C2.34 14.618125 1.68 15.29875 1 16 C0.34 15.67 -0.32 15.34 -1 15 C-0.484375 14.319375 0.03125 13.63875 0.5625 12.9375 C2.80201576 8.36109823 1.55818656 4.67455967 0 0 Z " fill="#A4C1C8" transform="translate(180,101)"/>
<path d="M0 0 C3.14958831 3.42346555 3.56179109 6.44262737 4 11 C2.125 10.8125 2.125 10.8125 0 10 C-1.375 7.75 -1.375 7.75 -2 5 C-1.125 2.1875 -1.125 2.1875 0 0 Z " fill="#95B9BE" transform="translate(237,19)"/>
<path d="M0 0 C0.33 0.99 0.66 1.98 1 3 C-1.97 2.67 -4.94 2.34 -8 2 C-8 3.32 -8 4.64 -8 6 C-9.32 6.33 -10.64 6.66 -12 7 C-11.67 6.01 -11.34 5.02 -11 4 C-11.66 3.67 -12.32 3.34 -13 3 C-8.51925805 -0.36055646 -5.39449293 -0.27429625 0 0 Z " fill="#91B6C0" transform="translate(318,92)"/>
<path d="M0 0 C0.97582031 0.19464844 1.95164063 0.38929687 2.95703125 0.58984375 C4.06111328 0.82380859 4.06111328 0.82380859 5.1875 1.0625 C2.07763793 3.13574138 1.29641613 3.33642186 -2.25 3.3125 C-3.01183594 3.31765625 -3.77367187 3.3228125 -4.55859375 3.328125 C-7.02693018 3.0372292 -8.670186 2.29225656 -10.8125 1.0625 C-10.8125 0.7325 -10.8125 0.4025 -10.8125 0.0625 C-6.8710998 -0.96788433 -3.97634848 -0.81443282 0 0 Z " fill="#95B8C0" transform="translate(221.8125,115.9375)"/>
<path d="M0 0 C0.66 0.33 1.32 0.66 2 1 C1.835 1.94875 1.67 2.8975 1.5 3.875 C0.9473365 6.80168901 0.9473365 6.80168901 1 9 C-0.98 8.34 -2.96 7.68 -5 7 C-4.60196439 4.11424181 -4.20990931 3.17810487 -1.9375 1.25 C-1.298125 0.8375 -0.65875 0.425 0 0 Z " fill="#9CBDC3" transform="translate(253,94)"/>
<path d="M0 0 C0.99 0.33 1.98 0.66 3 1 C2.34 1 1.68 1 1 1 C0.67 3.31 0.34 5.62 0 8 C0.66 8.33 1.32 8.66 2 9 C0.68 10.32 -0.64 11.64 -2 13 C-3.25 10.4375 -3.25 10.4375 -4 7 C-2.97381014 4.34989114 -1.61515439 2.37522704 0 0 Z " fill="#97BCC6" transform="translate(200,37)"/>
<path d="M0 0 C0.33 0.99 0.66 1.98 1 3 C-2.66708957 3.94296589 -5.35346727 4.11421833 -9 3 C-9.33 2.34 -9.66 1.68 -10 1 C-6.21812119 -0.83691257 -4.05431692 -1.15837626 0 0 Z " fill="#659FAE" transform="translate(357,99)"/>
<path d="M0 0 C1.32 0.33 2.64 0.66 4 1 C3.34 1 2.68 1 2 1 C2 2.32 2 3.64 2 5 C2.99 5 3.98 5 5 5 C5.33 6.32 5.66 7.64 6 9 C4.33388095 9.042721 2.66617115 9.04063832 1 9 C0 8 0 8 -0.09765625 6.15234375 C-0.06510417 4.1015625 -0.03255208 2.05078125 0 0 Z " fill="#A4BFC5" transform="translate(67,93)"/>
<path d="M0 0 C0 1.98 0 3.96 0 6 C-2.97 5.505 -2.97 5.505 -6 5 C-6 4.34 -6 3.68 -6 3 C-6.66 3 -7.32 3 -8 3 C-8 2.34 -8 1.68 -8 1 C-5.23735711 0.40267181 -2.83967231 0 0 0 Z " fill="#66A0AE" transform="translate(84,87)"/>
<path d="M0 0 C0.99 0.33 1.98 0.66 3 1 C3.19658808 2.41543415 3.38187546 3.83244031 3.5625 5.25 C3.66691406 6.03890625 3.77132812 6.8278125 3.87890625 7.640625 C4.00027349 10.00532874 3.69633257 11.7511037 3 14 C2.34 14 1.68 14 1 14 C1.33 10.37 1.66 6.74 2 3 C0.68 3.33 -0.64 3.66 -2 4 C-1.34 2.68 -0.68 1.36 0 0 Z " fill="#8FB4BB" transform="translate(185,26)"/>
<path d="M0 0 C1.32 0.66 2.64 1.32 4 2 C3.34 5.3 2.68 8.6 2 12 C1.67 12 1.34 12 1 12 C1 10.35 1 8.7 1 7 C0.34 7 -0.32 7 -1 7 C-1.33 8.32 -1.66 9.64 -2 11 C-3 9 -3 9 -2.44140625 6.8359375 C-2.15136719 6.02382813 -1.86132812 5.21171875 -1.5625 4.375 C-1.27503906 3.55773437 -0.98757812 2.74046875 -0.69140625 1.8984375 C-0.46324219 1.27195312 -0.23507813 0.64546875 0 0 Z " fill="#99BDC4" transform="translate(222,22)"/>
<path d="M0 0 C0.66 0 1.32 0 2 0 C2.33 0.99 2.66 1.98 3 3 C2.34 3 1.68 3 1 3 C0.67 3.66 0.34 4.32 0 5 C-2.34613181 6.53712084 -3.44563145 7.09239476 -6.25 6.625 C-6.8275 6.41875 -7.405 6.2125 -8 6 C-8 5.34 -8 4.68 -8 4 C-7.236875 3.896875 -6.47375 3.79375 -5.6875 3.6875 C-2.78105605 2.94399108 -1.96433971 2.15141968 0 0 Z " fill="#88B1BE" transform="translate(210,111)"/>
<path d="M0 0 C-0.33 1.32 -0.66 2.64 -1 4 C-1.33 3.34 -1.66 2.68 -2 2 C-3.32 2.33 -4.64 2.66 -6 3 C-6.33 7.95 -6.66 12.9 -7 18 C-7.33 18 -7.66 18 -8 18 C-8 12.39 -8 6.78 -8 1 C-3 -1 -3 -1 0 0 Z " fill="#A6C8D1" transform="translate(311,100)"/>
<path d="M0 0 C1.32 0 2.64 0 4 0 C2.45730076 4.72065967 0.92205381 9.41664092 -1 14 C-1.33 14 -1.66 14 -2 14 C-2.04254356 12.00045254 -2.04080783 9.99958364 -2 8 C-1.67 7.67 -1.34 7.34 -1 7 C-0.63239269 4.67182036 -0.29758419 2.3381615 0 0 Z " fill="#94BAC2" transform="translate(44,85)"/>
<path d="M0 0 C1.65 0 3.3 0 5 0 C5.33 1.32 5.66 2.64 6 4 C4.35 4.33 2.7 4.66 1 5 C0.67 3.35 0.34 1.7 0 0 Z M-5 4 C-3.35 4 -1.7 4 0 4 C-0.33 4.66 -0.66 5.32 -1 6 C-2.32 5.67 -3.64 5.34 -5 5 C-5 4.67 -5 4.34 -5 4 Z " fill="#68A0AE" transform="translate(196,104)"/>
<path d="M0 0 C2.97 0.495 2.97 0.495 6 1 C6 1.66 6 2.32 6 3 C5.34 3 4.68 3 4 3 C4 3.66 4 4.32 4 5 C2.68 5 1.36 5 0 5 C-0.33 4.01 -0.66 3.02 -1 2 C-0.67 1.34 -0.34 0.68 0 0 Z M-1 5 C-0.01 5.66 0.98 6.32 2 7 C0.35 7.33 -1.3 7.66 -3 8 C-2.34 7.67 -1.68 7.34 -1 7 C-1 6.34 -1 5.68 -1 5 Z " fill="#669FAC" transform="translate(110,104)"/>
<path d="M0 0 C0.66 1.32 1.32 2.64 2 4 C1.01 5.485 1.01 5.485 0 7 C-1.32 6.67 -2.64 6.34 -4 6 C-4 4.35 -4 2.7 -4 1 C-2.68 0.67 -1.36 0.34 0 0 Z " fill="#84AEB9" transform="translate(192,55)"/>
<path d="M0 0 C8.25 0 16.5 0 25 0 C25 0.33 25 0.66 25 1 C23.97845825 1.03758423 23.97845825 1.03758423 22.9362793 1.07592773 C19.85316245 1.19190952 16.77034954 1.31462616 13.6875 1.4375 C12.61564453 1.47681641 11.54378906 1.51613281 10.43945312 1.55664062 C8.89741211 1.61948242 8.89741211 1.61948242 7.32421875 1.68359375 C6.37635498 1.72025146 5.42849121 1.75690918 4.4519043 1.79467773 C1.863829 1.91430187 1.863829 1.91430187 -1 3 C-0.67 2.01 -0.34 1.02 0 0 Z " fill="#779A9F" transform="translate(151,47)"/>
<path d="M0 0 C0.7425 0.391875 1.485 0.78375 2.25 1.1875 C0.5625 3.25 0.5625 3.25 -1.75 5.1875 C-4.5 4.9375 -4.5 4.9375 -6.75 4.1875 C-6.75 2.1875 -6.75 2.1875 -5.0625 0.4375 C-2.75 -0.8125 -2.75 -0.8125 0 0 Z " fill="#679FA9" transform="translate(109.75,95.8125)"/>
<path d="M0 0 C1.65 0.33 3.3 0.66 5 1 C4.34 3.64 3.68 6.28 3 9 C2.34 9 1.68 9 1 9 C1 8.01 1 7.02 1 6 C0.34 5.67 -0.32 5.34 -1 5 C-0.67 3.35 -0.34 1.7 0 0 Z " fill="#87B1BC" transform="translate(338,100)"/>
<path d="M0 0 C5.69051363 0.5381371 11.34865884 1.1400133 17 2 C17 2.33 17 2.66 17 3 C14.91695462 3.05418326 12.83350232 3.09287551 10.75 3.125 C9.00976562 3.15980469 9.00976562 3.15980469 7.234375 3.1953125 C4.17213954 3.0103949 2.55797249 2.60823023 0 1 C0 0.67 0 0.34 0 0 Z " fill="#9CBCC3" transform="translate(76,116)"/>
<path d="M0 0 C0.33 0.66 0.66 1.32 1 2 C2.32 1.67 3.64 1.34 5 1 C6.0625 2.8125 6.0625 2.8125 7 5 C6.67 5.99 6.34 6.98 6 8 C5.34 7.67 4.68 7.34 4 7 C4 6.34 4 5.68 4 5 C2.68 5 1.36 5 0 5 C0 3.35 0 1.7 0 0 Z " fill="#8CAFB6" transform="translate(221,109)"/>
<path d="M0 0 C2 1 2 1 2.6875 2.9375 C3 5 3 5 2 7 C0.35 6.67 -1.3 6.34 -3 6 C-3 4.68 -3 3.36 -3 2 C-2.01 1.34 -1.02 0.68 0 0 Z " fill="#71A5B2" transform="translate(72,92)"/>
<path d="M0 0 C0.99 0 1.98 0 3 0 C2.625 2.4375 2.625 2.4375 2 5 C-0.52475462 6.26237731 -2.31200466 6.09856404 -5.125 6.0625 C-6.03507813 6.05347656 -6.94515625 6.04445313 -7.8828125 6.03515625 C-8.58148438 6.02355469 -9.28015625 6.01195313 -10 6 C-10 5.67 -10 5.34 -10 5 C-6.7 4.67 -3.4 4.34 0 4 C0 2.68 0 1.36 0 0 Z " fill="#A1C1C8" transform="translate(138,113)"/>
<path d="M0 0 C0.66 0.33 1.32 0.66 2 1 C1.649375 1.763125 1.29875 2.52625 0.9375 3.3125 C-0.32360884 6.04759379 -0.32360884 6.04759379 1 9 C0.34 9 -0.32 9 -1 9 C-1.33 9.66 -1.66 10.32 -2 11 C-3 10 -3 10 -3.25 7.1875 C-2.97826344 3.72285889 -2.31309135 2.50584896 0 0 Z " fill="#96BABF" transform="translate(104,105)"/>
<path d="M0 0 C-0.33 0.99 -0.66 1.98 -1 3 C-2.85625 2.7215625 -2.85625 2.7215625 -4.75 2.4375 C-7.76279577 2.05288777 -10.10010827 1.9125406 -13 3 C-13 2.01 -13 1.02 -13 0 C-11.39679026 -0.19551338 -9.79237014 -0.38111983 -8.1875 -0.5625 C-7.29417969 -0.66691406 -6.40085937 -0.77132812 -5.48046875 -0.87890625 C-3 -1 -3 -1 0 0 Z " fill="#91B6C0" transform="translate(125,99)"/>
<path d="M0 0 C2 1 2 1 4 4 C2.35 4.33 0.7 4.66 -1 5 C-1 5.66 -1 6.32 -1 7 C-2.65 7.33 -4.3 7.66 -6 8 C-5.67 7.34 -5.34 6.68 -5 6 C-4.34 6 -3.68 6 -3 6 C-2.690625 5.195625 -2.38125 4.39125 -2.0625 3.5625 C-1 1 -1 1 0 0 Z " fill="#9AC3CD" transform="translate(259,97)"/>
<path d="M0 0 C0.66 0 1.32 0 2 0 C2.33 3.3 2.66 6.6 3 10 C2.01 10 1.02 10 0 10 C-1.125 3.375 -1.125 3.375 0 0 Z " fill="#6AA0A7" transform="translate(201,38)"/>
<path d="M0 0 C0.66 0 1.32 0 2 0 C2.66 1.32 3.32 2.64 4 4 C4.66 4 5.32 4 6 4 C6 5.32 6 6.64 6 8 C4.125 7.6875 4.125 7.6875 2 7 C0 4 0 4 0 0 Z " fill="#9CBDC4" transform="translate(247,110)"/>
<path d="M0 0 C0.33 0 0.66 0 1 0 C1.48979592 7.34693878 1.48979592 7.34693878 -0.875 10.5 C-3 12 -3 12 -5 12 C-5.33 11.01 -5.66 10.02 -6 9 C-4.68 9 -3.36 9 -2 9 C-1.22678118 6.01758453 -0.58803797 3.02419525 0 0 Z " fill="#9EC1C7" transform="translate(183,89)"/>
<path d="M0 0 C-0.33 0.99 -0.66 1.98 -1 3 C-1.66 3 -2.32 3 -3 3 C-3 2.01 -3 1.02 -3 0 C-4.98 0 -6.96 0 -9 0 C-9 0.66 -9 1.32 -9 2 C-9.99 2 -10.98 2 -12 2 C-12 1.34 -12 0.68 -12 0 C-7.44729118 -2.48329572 -4.775353 -1.68541871 0 0 Z " fill="#9DBCC2" transform="translate(64,80)"/>
<path d="M0 0 C0.33 0 0.66 0 1 0 C1.33 2.97 1.66 5.94 2 9 C2.66 9 3.32 9 4 9 C4.33 9.99 4.66 10.98 5 12 C4.01 12 3.02 12 2 12 C-0.60018816 8.09971775 -0.15085514 4.52565431 0 0 Z " fill="#A1C1CB" transform="translate(365,101)"/>
<path d="M0 0 C-3.92592596 2.05643741 -7.76570244 3.68938409 -12 5 C-5.60587432 -1.7397541 -5.60587432 -1.7397541 0 0 Z " fill="#9BBCC5" transform="translate(380,93)"/>
<path d="M0 0 C3.37462715 0.54723683 5.08235 1.0549 8 3 C7.67 3.66 7.34 4.32 7 5 C6.4225 4.814375 5.845 4.62875 5.25 4.4375 C2.79307475 3.95976454 1.35602466 4.24270636 -1 5 C-0.34 4.67 0.32 4.34 1 4 C0.67 2.68 0.34 1.36 0 0 Z " fill="#92B8BF" transform="translate(126,93)"/>
<path d="M0 0 C2.475 0.495 2.475 0.495 5 1 C5.33 2.98 5.66 4.96 6 7 C5.01 7.33 4.02 7.66 3 8 C2.67 7.01 2.34 6.02 2 5 C2.66 4.01 3.32 3.02 4 2 C2.68 2 1.36 2 0 2 C0 1.34 0 0.68 0 0 Z " fill="#A7C4CC" transform="translate(282,110)"/>
<path d="M0 0 C2.31 0 4.62 0 7 0 C6.67 0.99 6.34 1.98 6 3 C4.02 3 2.04 3 0 3 C0 2.01 0 1.02 0 0 Z " fill="#62A2AC" transform="translate(255,114)"/>
<path d="M0 0 C2.625 -0.1875 2.625 -0.1875 5 0 C5 0.99 5 1.98 5 3 C2.69 3 0.38 3 -2 3 C-1.34 2.01 -0.68 1.02 0 0 Z " fill="#86ADB9" transform="translate(191,105)"/>
<path d="M0 0 C2.97 0 5.94 0 9 0 C8.01 0.495 8.01 0.495 7 1 C7 1.66 7 2.32 7 3 C5.35 3.33 3.7 3.66 2 4 C1.34 2.68 0.68 1.36 0 0 Z " fill="#ACCFD4" transform="translate(191,101)"/>
<path d="M0 0 C0.66 0 1.32 0 2 0 C2 0.66 2 1.32 2 2 C2.66 2 3.32 2 4 2 C4 2.99 4 3.98 4 5 C2.35 5 0.7 5 -1 5 C-0.67 3.35 -0.34 1.7 0 0 Z " fill="#699FA9" transform="translate(207,69)"/>
<path d="M0 0 C0.99 0 1.98 0 3 0 C3 2.31 3 4.62 3 7 C1.68 6.01 0.36 5.02 -1 4 C-0.67 2.68 -0.34 1.36 0 0 Z M0 2 C1 4 1 4 1 4 Z " fill="#6B9EAE" transform="translate(184,29)"/>
<path d="M0 0 C4 2 4 2 4.875 4.5 C4.91625 5.325 4.9575 6.15 5 7 C4.34 7.66 3.68 8.32 3 9 C2.01 6.03 1.02 3.06 0 0 Z " fill="#9CBFC7" transform="translate(4,85)"/>
<path d="M0 0 C2.75 -0.25 2.75 -0.25 6 0 C8.375 2 8.375 2 10 4 C6.44219804 3.39009109 3.3171411 2.4216319 0 1 C0 0.67 0 0.34 0 0 Z " fill="#98BAC2" transform="translate(173,84)"/>
<path d="M0 0 C2.64 0.33 5.28 0.66 8 1 C8 1.66 8 2.32 8 3 C5.69 3 3.38 3 1 3 C0.67 2.01 0.34 1.02 0 0 Z " fill="#88ADB5" transform="translate(380,110)"/>
<path d="M0 0 C1.5625 1.8125 1.5625 1.8125 3 4 C2.67 4.99 2.34 5.98 2 7 C2 6.34 2 5.68 2 5 C0.68 5.33 -0.64 5.66 -2 6 C-1.34 4.02 -0.68 2.04 0 0 Z " fill="#9BBEC3" transform="translate(214,50)"/>
</svg>
