<?xml version="1.0" encoding="utf-8"?>
<!-- Generator: Adobe Illustrator 24.0.0, SVG Export Plug-In . SVG Version: 6.00 Build 0)  -->
<svg version="1.1" id="Capa_1" xmlns="http://www.w3.org/2000/svg" xmlns:xlink="http://www.w3.org/1999/xlink" x="0px" y="0px"
	 viewBox="0 0 469.89 138.95" style="enable-background:new 0 0 469.89 138.95;" xml:space="preserve">
<style type="text/css">
	.st0{fill:#008D36;}
	.st1{fill:#2B6A47;}
	.st2{fill:#60AD66;}
	.st3{fill:#86BD48;}
	.st4{fill:#6CAC78;}
	.st5{fill:#706F6F;}
</style>
<g>
	<g>
		<g>
			<path class="st0" d="M106.69,57.4c-1.02-0.95-1.53-2.13-1.53-3.55c0-1.41,0.51-2.6,1.53-3.55c1.02-0.95,2.28-1.43,3.78-1.43
				c1.5,0,2.76,0.45,3.78,1.36c1.02,0.91,1.53,2.05,1.53,3.42c0,1.46-0.5,2.69-1.49,3.68c-0.99,0.99-2.27,1.49-3.81,1.49
				C108.97,58.82,107.71,58.35,106.69,57.4z M106.3,64.66h8.29v35.42h-8.29V64.66z"/>
			<path class="st0" d="M146.75,98.15c-0.97,0.8-2.16,1.39-3.55,1.79c-1.39,0.4-2.86,0.6-4.41,0.6c-3.89,0-6.9-1.02-9.02-3.05
				c-2.12-2.03-3.18-5-3.18-8.89V71.56h-5.84v-6.63h5.84v-8.09h8.29v8.09h9.48v6.63h-9.48V88.4c0,1.72,0.42,3.04,1.26,3.95
				c0.84,0.91,2.06,1.36,3.65,1.36c1.86,0,3.4-0.49,4.64-1.46L146.75,98.15z"/>
			<path class="st0" d="M179.09,68.01c2.76,2.5,4.15,6.27,4.15,11.31v20.76h-7.83v-4.31c-1.02,1.55-2.47,2.73-4.34,3.55
				c-1.88,0.82-4.15,1.23-6.8,1.23c-2.65,0-4.97-0.45-6.96-1.36s-3.53-2.17-4.61-3.78c-1.08-1.61-1.62-3.44-1.62-5.47
				c0-3.18,1.18-5.74,3.55-7.66c2.36-1.92,6.09-2.89,11.18-2.89h9.15v-0.53c0-2.48-0.74-4.38-2.22-5.7
				c-1.48-1.33-3.68-1.99-6.6-1.99c-1.99,0-3.95,0.31-5.87,0.93c-1.92,0.62-3.55,1.48-4.87,2.59l-3.25-6.04
				c1.86-1.41,4.09-2.5,6.7-3.25c2.61-0.75,5.37-1.13,8.29-1.13C172.33,64.26,176.32,65.51,179.09,68.01z M171.52,93.08
				c1.61-0.95,2.75-2.31,3.42-4.08v-4.11h-8.56c-4.78,0-7.16,1.57-7.16,4.71c0,1.5,0.6,2.7,1.79,3.58c1.19,0.89,2.85,1.33,4.97,1.33
				C168.06,94.51,169.91,94.03,171.52,93.08z"/>
			<path class="st0" d="M222.73,66.52c2.72,1.5,4.85,3.63,6.4,6.37c1.55,2.74,2.32,5.9,2.32,9.48s-0.77,6.75-2.32,9.52
				c-1.55,2.76-3.68,4.9-6.4,6.4c-2.72,1.5-5.8,2.25-9.25,2.25c-2.43,0-4.65-0.42-6.67-1.26c-2.01-0.84-3.7-2.1-5.07-3.78v4.58
				h-7.89V50.86h8.29v18.11c1.41-1.55,3.08-2.72,5.01-3.52s4.03-1.19,6.33-1.19C216.92,64.26,220.01,65.01,222.73,66.52z
				 M220.07,90.39c1.97-2.03,2.95-4.71,2.95-8.02c0-3.32-0.98-5.99-2.95-8.03c-1.97-2.03-4.48-3.05-7.53-3.05
				c-1.99,0-3.78,0.45-5.37,1.36c-1.59,0.91-2.85,2.2-3.78,3.88c-0.93,1.68-1.39,3.63-1.39,5.84c0,2.21,0.46,4.16,1.39,5.84
				c0.93,1.68,2.19,2.97,3.78,3.88c1.59,0.91,3.38,1.36,5.37,1.36C215.6,93.44,218.11,92.43,220.07,90.39z"/>
			<path class="st0" d="M264.38,68.01c2.76,2.5,4.15,6.27,4.15,11.31v20.76h-7.83v-4.31c-1.02,1.55-2.47,2.73-4.34,3.55
				c-1.88,0.82-4.15,1.23-6.8,1.23c-2.65,0-4.97-0.45-6.96-1.36s-3.53-2.17-4.61-3.78c-1.08-1.61-1.62-3.44-1.62-5.47
				c0-3.18,1.18-5.74,3.55-7.66c2.36-1.92,6.09-2.89,11.18-2.89h9.15v-0.53c0-2.48-0.74-4.38-2.22-5.7
				c-1.48-1.33-3.68-1.99-6.6-1.99c-1.99,0-3.95,0.31-5.87,0.93c-1.92,0.62-3.55,1.48-4.87,2.59l-3.25-6.04
				c1.86-1.41,4.09-2.5,6.7-3.25c2.61-0.75,5.37-1.13,8.29-1.13C257.62,64.26,261.62,65.51,264.38,68.01z M256.82,93.08
				c1.61-0.95,2.75-2.31,3.42-4.08v-4.11h-8.56c-4.78,0-7.16,1.57-7.16,4.71c0,1.5,0.6,2.7,1.79,3.58c1.19,0.89,2.85,1.33,4.97,1.33
				C253.36,94.51,255.2,94.03,256.82,93.08z"/>
			<path class="st0" d="M279.14,50.86h8.29v49.21h-8.29V50.86z"/>
			<path class="st0" d="M323.8,68.01c2.76,2.5,4.15,6.27,4.15,11.31v20.76h-7.83v-4.31c-1.02,1.55-2.47,2.73-4.34,3.55
				c-1.88,0.82-4.15,1.23-6.8,1.23c-2.65,0-4.97-0.45-6.96-1.36c-1.99-0.91-3.53-2.17-4.61-3.78c-1.08-1.61-1.62-3.44-1.62-5.47
				c0-3.18,1.18-5.74,3.55-7.66c2.36-1.92,6.09-2.89,11.18-2.89h9.15v-0.53c0-2.48-0.74-4.38-2.22-5.7
				c-1.48-1.33-3.68-1.99-6.6-1.99c-1.99,0-3.95,0.31-5.87,0.93c-1.92,0.62-3.55,1.48-4.88,2.59l-3.25-6.04
				c1.86-1.41,4.09-2.5,6.7-3.25c2.61-0.75,5.37-1.13,8.29-1.13C317.05,64.26,321.04,65.51,323.8,68.01z M316.24,93.08
				c1.61-0.95,2.75-2.31,3.42-4.08v-4.11h-8.56c-4.78,0-7.16,1.57-7.16,4.71c0,1.5,0.6,2.7,1.79,3.58c1.19,0.89,2.85,1.33,4.97,1.33
				C312.78,94.51,314.63,94.03,316.24,93.08z"/>
			<path class="st0" d="M369.4,68.17c2.7,2.61,4.05,6.48,4.05,11.61v20.3h-8.29V80.84c0-3.09-0.73-5.43-2.19-7
				c-1.46-1.57-3.54-2.35-6.23-2.35c-3.05,0-5.46,0.92-7.23,2.75c-1.77,1.84-2.65,4.48-2.65,7.93v17.91h-8.29V64.66h7.89v4.58
				c1.37-1.64,3.09-2.87,5.17-3.71c2.08-0.84,4.42-1.26,7.03-1.26C363.12,64.26,366.7,65.57,369.4,68.17z"/>
			<path class="st0" d="M390.69,98.22c-2.92-1.55-5.2-3.7-6.83-6.47c-1.64-2.76-2.45-5.89-2.45-9.38c0-3.49,0.82-6.61,2.45-9.35
				c1.63-2.74,3.9-4.89,6.8-6.43c2.9-1.55,6.2-2.32,9.92-2.32c3.49,0,6.55,0.71,9.19,2.12c2.63,1.42,4.61,3.45,5.94,6.1l-6.37,3.71
				c-1.02-1.64-2.29-2.86-3.81-3.68c-1.53-0.82-3.19-1.23-5.01-1.23c-3.1,0-5.66,1.01-7.69,3.02c-2.03,2.01-3.05,4.7-3.05,8.06
				c0,3.36,1.01,6.05,3.02,8.06c2.01,2.01,4.59,3.02,7.73,3.02c1.81,0,3.48-0.41,5.01-1.23c1.53-0.82,2.8-2.04,3.81-3.68l6.37,3.71
				c-1.37,2.65-3.37,4.7-6,6.13c-2.63,1.44-5.67,2.16-9.12,2.16C396.9,100.54,393.61,99.77,390.69,98.22z"/>
			<path class="st0" d="M455.49,85.02H427.7c0.49,2.61,1.76,4.68,3.81,6.2c2.06,1.53,4.61,2.29,7.66,2.29c3.89,0,7.1-1.28,9.62-3.85
				l4.44,5.11c-1.59,1.9-3.6,3.34-6.04,4.31c-2.43,0.97-5.17,1.46-8.22,1.46c-3.89,0-7.32-0.77-10.28-2.32
				c-2.96-1.55-5.25-3.7-6.86-6.47c-1.62-2.76-2.42-5.89-2.42-9.38c0-3.45,0.78-6.55,2.35-9.32c1.57-2.76,3.75-4.92,6.53-6.47
				c2.79-1.55,5.92-2.32,9.42-2.32c3.45,0,6.53,0.76,9.25,2.29c2.72,1.53,4.84,3.67,6.37,6.43c1.53,2.76,2.29,5.96,2.29,9.58
				C455.62,83.14,455.58,83.96,455.49,85.02z M430.98,73.25c-1.83,1.57-2.95,3.66-3.35,6.27h20.1c-0.35-2.56-1.44-4.64-3.25-6.23
				c-1.81-1.59-4.07-2.39-6.76-2.39C435.06,70.89,432.82,71.68,430.98,73.25z"/>
		</g>
		<g>
			<path class="st0" d="M74.37,92.54c-4.87,3.33-9.96,6.23-15.56,8.19c-0.86,0.3-1.33,0.21-1.87-0.53c-2.03-2.8-4.12-5.54-6.18-8.32
				c-0.39-0.53-0.72-1.03-1.41-1.24c-5.9-1.83-11.28-4.81-15.91-8.78c-10.58-9.1-18.2-19.96-19.12-34.52
				c-0.48-7.53,2.25-13.96,6.27-20.01c3.55-5.35,7.95-9.94,12.78-14.14c0.87-0.76,1.18-0.41,1.66,0.33
				c2.83,4.28,5.72,8.52,9.1,12.39c2.84,3.25,6.29,5.91,9.07,9.22c0.9,1.34,1.8,2.68,2.7,4.02c2.78,4.12,4.36,8.77,5.78,13.47
				l0,0.01c0.92,5.17,1.21,10.36,0.64,15.59c-0.85,5.05-2.06,9.98-4.43,14.56c-0.55,1.05-0.84,2.32-2.04,2.94
				c0.12-2.07,1.36-3.87,1.44-5.95c0.31-1.57,0.74-3.13,0.8-4.75l0-0.02c0.3-0.72,0.32-1.48,0.28-2.24c0.25-2.4,0.4-4.81,0.08-7.21
				c-0.04-0.74-0.08-1.48-0.12-2.22c0.07-0.37,0.05-0.72-0.18-1.04c-0.02-0.19-0.05-0.39-0.07-0.58c0.06-0.58,0.03-1.15-0.28-1.67
				c-0.02-0.2-0.05-0.39-0.07-0.59c0.04-0.46,0.02-0.91-0.27-1.31c-0.02-0.11-0.04-0.21-0.06-0.32c0.06-0.37-0.03-0.7-0.26-1
				c-1.72-7.52-5.47-13.94-11.03-19.18c-4.39-4.14-9.01-8.03-12.46-13.05c-0.47-0.69-0.78-0.59-1.31-0.01
				c-1.31,1.43-2.61,2.86-3.73,4.45c-0.21,0.3-0.43,0.6-0.64,0.9c-0.55,0.57-1.07,1.17-1.36,1.92c-0.36,0.23-0.6,0.54-0.67,0.97
				c-0.12,0.18-0.23,0.36-0.35,0.55c-0.98,1.2-1.63,2.59-2.24,4c-1.29,2.27-1.96,4.72-2.13,7.32c-0.29,5.07,0.51,10,2.17,14.77
				c2.22,6.36,5.99,11.81,10.26,16.92c3.48,4.17,7.48,7.76,12.07,10.68c0.83,0.79,1.67,1.57,3.12,1.84
				c-0.79-1.2-1.43-2.18-2.07-3.16C39.17,72.54,34.75,58.31,33,43.2c0.22,0.13,0.35,0.3,0.42,0.49c1.62,4.81,3.57,9.48,5.59,14.13
				c4.42,10.17,9.75,19.82,16.75,28.47c1.15,1.42,2.35,2.81,3.43,4.28c0.63,0.86,1.18,0.79,2.01,0.31c1.92-1.09,3.79-2.26,5.58-3.55
				c5.83-4.2,11.19-8.91,15.71-14.52c0.68-0.55,1.24-1.2,1.58-2.01c0.1-0.13,0.21-0.27,0.31-0.4c1.03-1.28,2.01-2.59,2.64-4.13
				c5.62-10.21,7.93-20.68,2.57-31.78c-0.06-0.62,0.21-1.29-0.24-1.86c-2.13-2.69-5.08-4.53-8.07-5.71c-2.1-0.83-4.9-0.63-7.39,0.15
				c-1.51,0.47-2.94,1.3-4.48,1.48c-1.37,0.16-0.91,0.64-0.59,1.3l-0.07,0.04c-0.82,0.03-1.43,0.25-2.19,0.83
				c-1.1,0.84-1.77,2.21-3.12,2.66c-1.19,0.4-1.32,1.07-0.86,2.07c-0.09,0.1-0.18,0.2-0.28,0.3c-0.43,0.03-0.62,0.27-0.58,0.7
				l0.01,0c-1.86-0.04-0.44-1.46-0.88-2.09l0.03-0.08c1.23,0.22,0.67-0.67,0.74-1.18l0.03,0.08l-0.04-0.07
				c1.32-0.06,1.48-0.9,1.29-1.96l0.05,0.09l-0.06-0.09c0.8,0.08,0.74-0.45,0.69-0.97c0.01-0.09,0-0.18,0-0.27
				c2.29-2.62,4.81-4.94,8-6.45c7.84-3.71,17.35-1.27,23.08,5.94c5.11,6.44,6.59,13.91,6.13,21.91c-0.41,7.08-2.71,13.6-6.01,19.8
				c-1.79,2.58-3.58,5.15-5.36,7.73c-2.53,2.65-5.06,5.3-7.58,7.96C79.12,88.43,76.89,90.67,74.37,92.54z"/>
			<path class="st1" d="M89.58,34.49c-1.92-2.57-4.08-4.83-7.08-6.18c-3.94-1.77-7.76-1.31-11.54,0.45
				c-0.73,0.34-1.43,0.73-2.15,1.1c-0.32-0.66-0.78-1.14,0.59-1.3c1.53-0.18,2.97-1.01,4.48-1.48c2.49-0.78,5.29-0.98,7.39-0.15
				c2.99,1.18,5.94,3.02,8.07,5.71C89.79,33.2,89.52,33.86,89.58,34.49z"/>
			<path class="st1" d="M60.17,38.79c-0.6,0.73-1.2,1.47-1.79,2.2c0.22-2.48,1.27-4.58,2.46-6.63c0.44,0.64-0.99,2.05,0.88,2.09
				c-0.5,0.76-1,1.52-1.5,2.29C60.22,38.74,60.17,38.79,60.17,38.79z"/>
			<path class="st1" d="M68.73,29.9c-2.03,1.62-4.11,3.19-5.72,5.28c-0.15,0.09-0.29,0.19-0.44,0.28c-0.47-1-0.34-1.67,0.86-2.07
				c1.35-0.45,2.02-1.82,3.12-2.66C67.3,30.15,67.91,29.93,68.73,29.9z"/>
			<path class="st2" d="M45.75,87.07c0.99,0.07,1.07-0.59,1.05-1.32c0.64,0.98,1.28,1.96,2.07,3.16
				C47.41,88.64,46.58,87.85,45.75,87.07z"/>
			<path class="st1" d="M61.61,33.1c0.3-0.74,0.69-1.42,1.29-1.96C63.09,32.2,62.93,33.04,61.61,33.1z"/>
			<path class="st1" d="M60.87,34.28c0.17-0.44,0.34-0.88,0.74-1.18C61.55,33.6,62.1,34.5,60.87,34.28z"/>
			<path class="st1" d="M62.89,31.14c0.11-0.41,0.34-0.73,0.69-0.97C63.63,30.69,63.69,31.22,62.89,31.14z"/>
			<path class="st1" d="M62.3,35.76c-0.1,0.31-0.27,0.56-0.58,0.7C61.68,36.03,61.86,35.79,62.3,35.76z"/>
			<path class="st3" d="M56.08,61.21c-0.97-3.77-2.29-7.94-4.5-10.54c0,0-12.38-13.09-13.79-14.94c-1.92-2.05-3.65-4.24-5.3-6.5
				c-1.66,0.38-6.57,6.94-7.89,9.12c-1.24,2.04-2.24,4.23-3.36,6.34c-0.29,5.07,0.51,10,2.17,14.77
				c2.22,6.36,5.99,11.81,10.26,16.92c3.48,4.17,7.48,7.76,12.07,10.68c0.99,0.07,1.07-0.59,1.05-1.32
				C39.17,72.54,34.75,58.31,33,43.2c0.22,0.13,0.35,0.3,0.42,0.49c1.62,4.81,3.57,9.48,5.59,14.13
				c4.42,10.17,9.75,19.82,16.75,28.47c0.04-0.19,0.07-0.38,0.11-0.57c0.12-2.07,1.36-3.87,1.44-5.95
				C57.31,78.17,56.53,62.98,56.08,61.21z M48.51,46.96c0.01,0.01,0.02,0.02,0.03,0.03C48.53,46.97,48.52,46.96,48.51,46.96z"/>
		</g>
	</g>
	<g>
		<path class="st5" d="M53.94,110.79h1.3l-0.11,3.32h-1.09L53.94,110.79z M56.26,110.79h1.3l-0.11,3.32h-1.09L56.26,110.79z"/>
		<path class="st5" d="M60.08,119.03c-0.6-0.18-1.08-0.43-1.43-0.73l0.54-1.21c0.34,0.27,0.77,0.49,1.27,0.67s1,0.26,1.51,0.26
			c0.62,0,1.09-0.1,1.4-0.3c0.31-0.2,0.46-0.46,0.46-0.79c0-0.24-0.09-0.44-0.26-0.59c-0.17-0.16-0.39-0.28-0.65-0.37
			c-0.26-0.09-0.62-0.19-1.08-0.3c-0.64-0.15-1.16-0.3-1.55-0.46c-0.4-0.15-0.74-0.39-1.02-0.71s-0.43-0.76-0.43-1.31
			c0-0.46,0.13-0.89,0.38-1.27c0.25-0.38,0.63-0.68,1.14-0.91c0.51-0.22,1.13-0.34,1.87-0.34c0.51,0,1.02,0.06,1.51,0.19
			c0.5,0.13,0.92,0.31,1.28,0.55l-0.49,1.21c-0.37-0.22-0.75-0.38-1.15-0.49c-0.4-0.11-0.79-0.17-1.16-0.17
			c-0.62,0-1.07,0.1-1.37,0.31c-0.3,0.21-0.45,0.48-0.45,0.83c0,0.24,0.09,0.44,0.26,0.59c0.17,0.15,0.39,0.27,0.65,0.36
			s0.62,0.19,1.08,0.3c0.62,0.14,1.14,0.29,1.54,0.45c0.4,0.16,0.74,0.39,1.03,0.71c0.28,0.32,0.43,0.75,0.43,1.3
			c0,0.46-0.13,0.88-0.38,1.26s-0.63,0.68-1.15,0.9c-0.51,0.22-1.14,0.34-1.87,0.34C61.31,119.31,60.68,119.21,60.08,119.03z"/>
		<path class="st5" d="M71.37,113.38c0.5,0.45,0.75,1.13,0.75,2.05v3.76h-1.42v-0.78c-0.18,0.28-0.45,0.49-0.79,0.64
			c-0.34,0.15-0.75,0.22-1.23,0.22s-0.9-0.08-1.26-0.25c-0.36-0.16-0.64-0.39-0.83-0.68c-0.2-0.29-0.29-0.62-0.29-0.99
			c0-0.58,0.21-1.04,0.64-1.39c0.43-0.35,1.1-0.52,2.02-0.52h1.66v-0.1c0-0.45-0.13-0.79-0.4-1.03s-0.67-0.36-1.19-0.36
			c-0.36,0-0.71,0.06-1.06,0.17c-0.35,0.11-0.64,0.27-0.88,0.47l-0.59-1.09c0.34-0.26,0.74-0.45,1.21-0.59
			c0.47-0.14,0.97-0.2,1.5-0.2C70.15,112.71,70.87,112.93,71.37,113.38z M70,117.92c0.29-0.17,0.5-0.42,0.62-0.74v-0.74h-1.55
			c-0.86,0-1.3,0.28-1.3,0.85c0,0.27,0.11,0.49,0.32,0.65c0.22,0.16,0.52,0.24,0.9,0.24C69.38,118.18,69.71,118.09,70,117.92z"/>
		<path class="st5" d="M74.04,110.28h1.5v8.9h-1.5V110.28z"/>
		<path class="st5" d="M83.71,112.78v6.41h-1.43v-0.82c-0.24,0.29-0.54,0.51-0.9,0.67c-0.36,0.16-0.75,0.23-1.16,0.23
			c-0.86,0-1.53-0.24-2.02-0.71c-0.49-0.48-0.74-1.18-0.74-2.12v-3.66h1.5v3.46c0,0.58,0.13,1.01,0.39,1.29
			c0.26,0.28,0.63,0.43,1.11,0.43c0.54,0,0.96-0.17,1.28-0.5c0.32-0.33,0.47-0.81,0.47-1.43v-3.24H83.71z"/>
		<path class="st5" d="M91.96,110.28v8.9h-1.44v-0.83c-0.25,0.3-0.55,0.53-0.92,0.68c-0.36,0.15-0.77,0.23-1.21,0.23
			c-0.62,0-1.17-0.14-1.66-0.41c-0.49-0.27-0.88-0.66-1.16-1.16c-0.28-0.5-0.42-1.07-0.42-1.72c0-0.65,0.14-1.22,0.42-1.72
			c0.28-0.5,0.67-0.88,1.16-1.15c0.49-0.27,1.05-0.41,1.66-0.41c0.42,0,0.81,0.07,1.16,0.22c0.35,0.14,0.65,0.36,0.9,0.65v-3.29
			H91.96z M89.55,117.74c0.29-0.16,0.52-0.4,0.68-0.7c0.17-0.3,0.25-0.66,0.25-1.06c0-0.4-0.08-0.75-0.25-1.06
			c-0.17-0.3-0.4-0.54-0.68-0.7s-0.61-0.25-0.97-0.25s-0.68,0.08-0.97,0.25c-0.29,0.16-0.52,0.4-0.68,0.7
			c-0.17,0.3-0.25,0.66-0.25,1.06c0,0.4,0.08,0.75,0.25,1.06c0.17,0.3,0.4,0.54,0.68,0.7c0.29,0.16,0.61,0.25,0.97,0.25
			S89.26,117.9,89.55,117.74z"/>
		<path class="st5" d="M103.24,116.46h-5.03c0.09,0.47,0.32,0.85,0.69,1.12c0.37,0.28,0.83,0.41,1.39,0.41c0.7,0,1.28-0.23,1.74-0.7
			l0.8,0.92c-0.29,0.34-0.65,0.6-1.09,0.78s-0.94,0.26-1.49,0.26c-0.7,0-1.32-0.14-1.86-0.42c-0.54-0.28-0.95-0.67-1.24-1.17
			s-0.44-1.07-0.44-1.7c0-0.62,0.14-1.19,0.43-1.69c0.28-0.5,0.68-0.89,1.18-1.17c0.5-0.28,1.07-0.42,1.7-0.42
			c0.62,0,1.18,0.14,1.67,0.41c0.49,0.28,0.88,0.66,1.15,1.16c0.28,0.5,0.41,1.08,0.41,1.73
			C103.26,116.12,103.25,116.27,103.24,116.46z M98.8,114.33c-0.33,0.28-0.53,0.66-0.61,1.13h3.64c-0.06-0.46-0.26-0.84-0.59-1.13
			c-0.33-0.29-0.74-0.43-1.22-0.43C99.54,113.91,99.14,114.05,98.8,114.33z"/>
		<path class="st5" d="M110.28,113.41c0.49,0.47,0.73,1.17,0.73,2.1v3.67h-1.5v-3.48c0-0.56-0.13-0.98-0.4-1.27
			c-0.26-0.28-0.64-0.43-1.13-0.43c-0.55,0-0.99,0.17-1.31,0.5s-0.48,0.81-0.48,1.43v3.24h-1.5v-6.41h1.43v0.83
			c0.25-0.3,0.56-0.52,0.94-0.67c0.38-0.15,0.8-0.23,1.27-0.23C109.15,112.71,109.79,112.94,110.28,113.41z"/>
		<path class="st5" d="M117.39,118.85c-0.53-0.28-0.94-0.67-1.24-1.17s-0.44-1.07-0.44-1.7s0.15-1.2,0.44-1.69
			c0.3-0.5,0.71-0.88,1.23-1.16c0.52-0.28,1.12-0.42,1.79-0.42c0.63,0,1.19,0.13,1.66,0.38s0.83,0.62,1.07,1.1l-1.15,0.67
			c-0.18-0.3-0.41-0.52-0.69-0.67c-0.28-0.15-0.58-0.22-0.91-0.22c-0.56,0-1.02,0.18-1.39,0.55c-0.37,0.36-0.55,0.85-0.55,1.46
			c0,0.61,0.18,1.09,0.55,1.46c0.36,0.36,0.83,0.55,1.4,0.55c0.33,0,0.63-0.07,0.91-0.22c0.28-0.15,0.51-0.37,0.69-0.67l1.15,0.67
			c-0.25,0.48-0.61,0.85-1.09,1.11c-0.48,0.26-1.03,0.39-1.65,0.39C118.51,119.27,117.91,119.13,117.39,118.85z"/>
		<path class="st5" d="M127.82,113.38c0.5,0.45,0.75,1.13,0.75,2.05v3.76h-1.42v-0.78c-0.18,0.28-0.45,0.49-0.79,0.64
			c-0.34,0.15-0.75,0.22-1.23,0.22s-0.9-0.08-1.26-0.25c-0.36-0.16-0.64-0.39-0.83-0.68c-0.2-0.29-0.29-0.62-0.29-0.99
			c0-0.58,0.21-1.04,0.64-1.39c0.43-0.35,1.1-0.52,2.02-0.52h1.66v-0.1c0-0.45-0.13-0.79-0.4-1.03s-0.67-0.36-1.19-0.36
			c-0.36,0-0.71,0.06-1.06,0.17c-0.35,0.11-0.64,0.27-0.88,0.47l-0.59-1.09c0.34-0.26,0.74-0.45,1.21-0.59
			c0.47-0.14,0.97-0.2,1.5-0.2C126.6,112.71,127.32,112.93,127.82,113.38z M126.45,117.92c0.29-0.17,0.5-0.42,0.62-0.74v-0.74h-1.55
			c-0.86,0-1.3,0.28-1.3,0.85c0,0.27,0.11,0.49,0.32,0.65c0.22,0.16,0.52,0.24,0.9,0.24C125.83,118.18,126.16,118.09,126.45,117.92z
			"/>
		<path class="st5" d="M136.82,110.28v8.9h-1.44v-0.83c-0.25,0.3-0.55,0.53-0.92,0.68c-0.36,0.15-0.77,0.23-1.21,0.23
			c-0.62,0-1.17-0.14-1.66-0.41c-0.49-0.27-0.88-0.66-1.16-1.16c-0.28-0.5-0.42-1.07-0.42-1.72c0-0.65,0.14-1.22,0.42-1.72
			c0.28-0.5,0.67-0.88,1.16-1.15c0.49-0.27,1.05-0.41,1.66-0.41c0.42,0,0.81,0.07,1.16,0.22c0.35,0.14,0.65,0.36,0.9,0.65v-3.29
			H136.82z M134.41,117.74c0.29-0.16,0.52-0.4,0.68-0.7c0.17-0.3,0.25-0.66,0.25-1.06c0-0.4-0.08-0.75-0.25-1.06
			c-0.17-0.3-0.4-0.54-0.68-0.7s-0.61-0.25-0.97-0.25s-0.68,0.08-0.97,0.25c-0.29,0.16-0.52,0.4-0.68,0.7
			c-0.17,0.3-0.25,0.66-0.25,1.06c0,0.4,0.08,0.75,0.25,1.06c0.17,0.3,0.4,0.54,0.68,0.7c0.29,0.16,0.61,0.25,0.97,0.25
			S134.12,117.9,134.41,117.74z"/>
		<path class="st5" d="M143.41,113.38c0.5,0.45,0.75,1.13,0.75,2.05v3.76h-1.42v-0.78c-0.18,0.28-0.45,0.49-0.79,0.64
			c-0.34,0.15-0.75,0.22-1.23,0.22s-0.9-0.08-1.26-0.25c-0.36-0.16-0.64-0.39-0.83-0.68c-0.2-0.29-0.29-0.62-0.29-0.99
			c0-0.58,0.21-1.04,0.64-1.39c0.43-0.35,1.1-0.52,2.02-0.52h1.66v-0.1c0-0.45-0.13-0.79-0.4-1.03s-0.67-0.36-1.19-0.36
			c-0.36,0-0.71,0.06-1.06,0.17c-0.35,0.11-0.64,0.27-0.88,0.47l-0.59-1.09c0.34-0.26,0.74-0.45,1.21-0.59
			c0.47-0.14,0.97-0.2,1.5-0.2C142.19,112.71,142.91,112.93,143.41,113.38z M142.04,117.92c0.29-0.17,0.5-0.42,0.62-0.74v-0.74
			h-1.55c-0.86,0-1.3,0.28-1.3,0.85c0,0.27,0.11,0.49,0.32,0.65c0.22,0.16,0.52,0.24,0.9,0.24
			C141.41,118.18,141.75,118.09,142.04,117.92z"/>
		<path class="st5" d="M154.61,113.11c0.49,0.27,0.88,0.66,1.16,1.15c0.28,0.5,0.42,1.07,0.42,1.72c0,0.65-0.14,1.22-0.42,1.72
			c-0.28,0.5-0.67,0.89-1.16,1.16c-0.49,0.27-1.05,0.41-1.67,0.41c-0.44,0-0.84-0.08-1.21-0.23c-0.36-0.15-0.67-0.38-0.92-0.68v0.83
			h-1.43v-8.9h1.5v3.28c0.26-0.28,0.56-0.49,0.91-0.64c0.35-0.14,0.73-0.22,1.15-0.22C153.56,112.71,154.12,112.84,154.61,113.11z
			 M154.13,117.43c0.36-0.37,0.53-0.85,0.53-1.45c0-0.6-0.18-1.08-0.53-1.45c-0.36-0.37-0.81-0.55-1.36-0.55
			c-0.36,0-0.68,0.08-0.97,0.25s-0.52,0.4-0.68,0.7s-0.25,0.66-0.25,1.06c0,0.4,0.08,0.75,0.25,1.06c0.17,0.3,0.4,0.54,0.68,0.7
			s0.61,0.25,0.97,0.25C153.32,117.99,153.78,117.8,154.13,117.43z"/>
		<path class="st5" d="M158.75,118.85c-0.52-0.28-0.93-0.67-1.22-1.17s-0.44-1.07-0.44-1.7s0.15-1.2,0.44-1.69
			c0.29-0.5,0.7-0.88,1.22-1.16c0.52-0.28,1.1-0.42,1.75-0.42c0.66,0,1.24,0.14,1.76,0.42c0.52,0.28,0.93,0.67,1.22,1.16
			c0.29,0.5,0.44,1.06,0.44,1.69s-0.15,1.2-0.44,1.7c-0.29,0.5-0.7,0.89-1.22,1.17s-1.11,0.42-1.76,0.42
			C159.85,119.27,159.27,119.13,158.75,118.85z M161.87,117.43c0.36-0.37,0.54-0.85,0.54-1.45c0-0.6-0.18-1.08-0.54-1.45
			c-0.36-0.37-0.82-0.55-1.37-0.55c-0.55,0-1.01,0.18-1.36,0.55c-0.36,0.37-0.53,0.85-0.53,1.45c0,0.6,0.18,1.08,0.53,1.45
			s0.81,0.55,1.36,0.55C161.05,117.99,161.51,117.8,161.87,117.43z"/>
		<path class="st5" d="M166.51,118.85c-0.53-0.28-0.94-0.67-1.24-1.17c-0.3-0.5-0.44-1.07-0.44-1.7s0.15-1.2,0.44-1.69
			c0.3-0.5,0.71-0.88,1.23-1.16c0.52-0.28,1.12-0.42,1.79-0.42c0.63,0,1.19,0.13,1.66,0.38s0.83,0.62,1.07,1.1l-1.15,0.67
			c-0.18-0.3-0.41-0.52-0.69-0.67c-0.28-0.15-0.58-0.22-0.91-0.22c-0.56,0-1.02,0.18-1.39,0.55c-0.37,0.36-0.55,0.85-0.55,1.46
			c0,0.61,0.18,1.09,0.55,1.46s0.83,0.55,1.4,0.55c0.33,0,0.63-0.07,0.91-0.22c0.28-0.15,0.51-0.37,0.69-0.67l1.15,0.67
			c-0.25,0.48-0.61,0.85-1.09,1.11c-0.48,0.26-1.03,0.39-1.65,0.39C167.64,119.27,167.04,119.13,166.51,118.85z"/>
		<path class="st5" d="M176.95,113.38c0.5,0.45,0.75,1.13,0.75,2.05v3.76h-1.42v-0.78c-0.18,0.28-0.45,0.49-0.79,0.64
			c-0.34,0.15-0.75,0.22-1.23,0.22s-0.9-0.08-1.26-0.25c-0.36-0.16-0.64-0.39-0.83-0.68c-0.2-0.29-0.29-0.62-0.29-0.99
			c0-0.58,0.21-1.04,0.64-1.39c0.43-0.35,1.1-0.52,2.02-0.52h1.66v-0.1c0-0.45-0.13-0.79-0.4-1.03c-0.27-0.24-0.67-0.36-1.19-0.36
			c-0.36,0-0.71,0.06-1.06,0.17c-0.35,0.11-0.64,0.27-0.88,0.47l-0.59-1.09c0.34-0.26,0.74-0.45,1.21-0.59
			c0.47-0.14,0.97-0.2,1.5-0.2C175.72,112.71,176.45,112.93,176.95,113.38z M175.58,117.92c0.29-0.17,0.5-0.42,0.62-0.74v-0.74
			h-1.55c-0.86,0-1.3,0.28-1.3,0.85c0,0.27,0.11,0.49,0.32,0.65s0.52,0.24,0.9,0.24C174.95,118.18,175.29,118.09,175.58,117.92z"/>
		<path class="st5" d="M185.95,110.28v8.9h-1.44v-0.83c-0.25,0.3-0.55,0.53-0.92,0.68c-0.36,0.15-0.77,0.23-1.21,0.23
			c-0.62,0-1.17-0.14-1.66-0.41c-0.49-0.27-0.88-0.66-1.16-1.16c-0.28-0.5-0.42-1.07-0.42-1.72c0-0.65,0.14-1.22,0.42-1.72
			s0.67-0.88,1.16-1.15c0.49-0.27,1.05-0.41,1.66-0.41c0.42,0,0.81,0.07,1.16,0.22c0.35,0.14,0.65,0.36,0.9,0.65v-3.29H185.95z
			 M183.54,117.74c0.29-0.16,0.52-0.4,0.68-0.7c0.17-0.3,0.25-0.66,0.25-1.06c0-0.4-0.08-0.75-0.25-1.06s-0.4-0.54-0.68-0.7
			s-0.61-0.25-0.97-0.25s-0.68,0.08-0.97,0.25s-0.52,0.4-0.68,0.7s-0.25,0.66-0.25,1.06c0,0.4,0.08,0.75,0.25,1.06
			c0.17,0.3,0.4,0.54,0.68,0.7s0.61,0.25,0.97,0.25S183.25,117.9,183.54,117.74z"/>
		<path class="st5" d="M189.05,118.85c-0.52-0.28-0.93-0.67-1.22-1.17s-0.44-1.07-0.44-1.7s0.15-1.2,0.44-1.69
			c0.29-0.5,0.7-0.88,1.22-1.16c0.52-0.28,1.1-0.42,1.75-0.42c0.66,0,1.24,0.14,1.76,0.42c0.52,0.28,0.93,0.67,1.22,1.16
			c0.29,0.5,0.44,1.06,0.44,1.69s-0.15,1.2-0.44,1.7s-0.7,0.89-1.22,1.17c-0.52,0.28-1.11,0.42-1.76,0.42
			C190.15,119.27,189.57,119.13,189.05,118.85z M192.17,117.43c0.36-0.37,0.54-0.85,0.54-1.45c0-0.6-0.18-1.08-0.54-1.45
			c-0.36-0.37-0.82-0.55-1.37-0.55c-0.55,0-1.01,0.18-1.36,0.55c-0.36,0.37-0.53,0.85-0.53,1.45c0,0.6,0.18,1.08,0.53,1.45
			c0.36,0.37,0.81,0.55,1.36,0.55C191.35,117.99,191.81,117.8,192.17,117.43z"/>
		<path class="st5" d="M196.73,117.55c0.18,0.18,0.28,0.42,0.28,0.72c0,0.13-0.02,0.26-0.05,0.4c-0.04,0.14-0.11,0.35-0.22,0.63
			l-0.61,1.69h-0.97l0.48-1.84c-0.18-0.07-0.31-0.19-0.41-0.34c-0.1-0.16-0.15-0.34-0.15-0.55c0-0.3,0.09-0.54,0.28-0.72
			c0.18-0.18,0.42-0.28,0.7-0.28C196.31,117.28,196.54,117.37,196.73,117.55z"/>
		<path class="st5" d="M205.63,118.84c-0.18,0.14-0.39,0.25-0.64,0.32c-0.25,0.07-0.52,0.11-0.8,0.11c-0.7,0-1.25-0.18-1.63-0.55
			c-0.38-0.37-0.58-0.9-0.58-1.61v-3.08h-1.06v-1.2h1.06v-1.46h1.5v1.46h1.72v1.2h-1.72v3.05c0,0.31,0.08,0.55,0.23,0.71
			c0.15,0.16,0.37,0.25,0.66,0.25c0.34,0,0.62-0.09,0.84-0.26L205.63,118.84z"/>
		<path class="st5" d="M213.07,112.78v6.41h-1.43v-0.82c-0.24,0.29-0.54,0.51-0.9,0.67c-0.36,0.16-0.75,0.23-1.16,0.23
			c-0.86,0-1.53-0.24-2.02-0.71s-0.74-1.18-0.74-2.12v-3.66h1.5v3.46c0,0.58,0.13,1.01,0.39,1.29s0.63,0.43,1.11,0.43
			c0.54,0,0.96-0.17,1.28-0.5c0.32-0.33,0.47-0.81,0.47-1.43v-3.24H213.07z"/>
		<path class="st5" d="M222.97,113.38c0.5,0.45,0.75,1.13,0.75,2.05v3.76h-1.42v-0.78c-0.18,0.28-0.45,0.49-0.79,0.64
			c-0.34,0.15-0.75,0.22-1.23,0.22s-0.9-0.08-1.26-0.25c-0.36-0.16-0.64-0.39-0.83-0.68c-0.2-0.29-0.29-0.62-0.29-0.99
			c0-0.58,0.21-1.04,0.64-1.39c0.43-0.35,1.1-0.52,2.02-0.52h1.66v-0.1c0-0.45-0.13-0.79-0.4-1.03c-0.27-0.24-0.67-0.36-1.19-0.36
			c-0.36,0-0.71,0.06-1.06,0.17c-0.35,0.11-0.64,0.27-0.88,0.47l-0.59-1.09c0.34-0.26,0.74-0.45,1.21-0.59
			c0.47-0.14,0.97-0.2,1.5-0.2C221.74,112.71,222.47,112.93,222.97,113.38z M221.6,117.92c0.29-0.17,0.5-0.42,0.62-0.74v-0.74h-1.55
			c-0.86,0-1.3,0.28-1.3,0.85c0,0.27,0.11,0.49,0.32,0.65s0.52,0.24,0.9,0.24C220.97,118.18,221.31,118.09,221.6,117.92z"/>
		<path class="st5" d="M230.86,113.11c0.49,0.27,0.88,0.66,1.16,1.15c0.28,0.5,0.42,1.07,0.42,1.72c0,0.65-0.14,1.22-0.42,1.72
			c-0.28,0.5-0.67,0.89-1.16,1.16c-0.49,0.27-1.05,0.41-1.67,0.41c-0.86,0-1.55-0.29-2.05-0.86v3.11h-1.5v-8.74h1.43v0.84
			c0.25-0.3,0.55-0.53,0.92-0.68s0.77-0.23,1.21-0.23C229.81,112.71,230.37,112.84,230.86,113.11z M230.38,117.43
			c0.36-0.37,0.53-0.85,0.53-1.45c0-0.6-0.18-1.08-0.53-1.45c-0.36-0.37-0.81-0.55-1.36-0.55c-0.36,0-0.68,0.08-0.97,0.25
			c-0.29,0.16-0.52,0.4-0.68,0.7s-0.25,0.66-0.25,1.06c0,0.4,0.08,0.75,0.25,1.06c0.17,0.3,0.4,0.54,0.68,0.7
			c0.29,0.16,0.61,0.25,0.97,0.25C229.57,117.99,230.03,117.8,230.38,117.43z"/>
		<path class="st5" d="M239.09,113.11c0.49,0.27,0.88,0.66,1.16,1.15c0.28,0.5,0.42,1.07,0.42,1.72c0,0.65-0.14,1.22-0.42,1.72
			c-0.28,0.5-0.67,0.89-1.16,1.16c-0.49,0.27-1.05,0.41-1.67,0.41c-0.86,0-1.55-0.29-2.05-0.86v3.11h-1.5v-8.74h1.43v0.84
			c0.25-0.3,0.55-0.53,0.92-0.68c0.36-0.15,0.77-0.23,1.21-0.23C238.04,112.71,238.6,112.84,239.09,113.11z M238.61,117.43
			c0.36-0.37,0.53-0.85,0.53-1.45c0-0.6-0.18-1.08-0.53-1.45c-0.36-0.37-0.81-0.55-1.36-0.55c-0.36,0-0.68,0.08-0.97,0.25
			c-0.29,0.16-0.52,0.4-0.68,0.7s-0.25,0.66-0.25,1.06c0,0.4,0.08,0.75,0.25,1.06c0.17,0.3,0.4,0.54,0.68,0.7
			c0.29,0.16,0.61,0.25,0.97,0.25C237.8,117.99,238.26,117.8,238.61,117.43z"/>
		<path class="st5" d="M251.69,110.28v8.9h-1.44v-0.83c-0.25,0.3-0.55,0.53-0.92,0.68c-0.36,0.15-0.77,0.23-1.21,0.23
			c-0.62,0-1.17-0.14-1.66-0.41c-0.49-0.27-0.88-0.66-1.16-1.16c-0.28-0.5-0.42-1.07-0.42-1.72c0-0.65,0.14-1.22,0.42-1.72
			s0.67-0.88,1.16-1.15c0.49-0.27,1.05-0.41,1.66-0.41c0.42,0,0.81,0.07,1.16,0.22c0.35,0.14,0.65,0.36,0.9,0.65v-3.29H251.69z
			 M249.28,117.74c0.29-0.16,0.52-0.4,0.68-0.7c0.17-0.3,0.25-0.66,0.25-1.06c0-0.4-0.08-0.75-0.25-1.06s-0.4-0.54-0.68-0.7
			s-0.61-0.25-0.97-0.25s-0.68,0.08-0.97,0.25s-0.52,0.4-0.68,0.7s-0.25,0.66-0.25,1.06c0,0.4,0.08,0.75,0.25,1.06
			c0.17,0.3,0.4,0.54,0.68,0.7s0.61,0.25,0.97,0.25S248.99,117.9,249.28,117.74z"/>
		<path class="st5" d="M259.66,116.46h-5.03c0.09,0.47,0.32,0.85,0.69,1.12c0.37,0.28,0.83,0.41,1.39,0.41c0.7,0,1.28-0.23,1.74-0.7
			l0.8,0.92c-0.29,0.34-0.65,0.6-1.09,0.78c-0.44,0.18-0.94,0.26-1.49,0.26c-0.7,0-1.32-0.14-1.86-0.42s-0.95-0.67-1.24-1.17
			s-0.44-1.07-0.44-1.7c0-0.62,0.14-1.19,0.43-1.69s0.68-0.89,1.18-1.17c0.5-0.28,1.07-0.42,1.7-0.42c0.62,0,1.18,0.14,1.67,0.41
			c0.49,0.28,0.88,0.66,1.15,1.16c0.28,0.5,0.41,1.08,0.41,1.73C259.68,116.12,259.67,116.27,259.66,116.46z M255.22,114.33
			c-0.33,0.28-0.53,0.66-0.61,1.13h3.64c-0.06-0.46-0.26-0.84-0.59-1.13s-0.74-0.43-1.22-0.43
			C255.96,113.91,255.55,114.05,255.22,114.33z"/>
		<path class="st5" d="M270.01,113.41c0.49,0.47,0.73,1.17,0.73,2.1v3.67h-1.5v-3.48c0-0.56-0.13-0.98-0.4-1.27
			c-0.26-0.28-0.64-0.43-1.13-0.43c-0.55,0-0.99,0.17-1.31,0.5s-0.48,0.81-0.48,1.43v3.24h-1.5v-6.41h1.43v0.83
			c0.25-0.3,0.56-0.52,0.94-0.67s0.8-0.23,1.27-0.23C268.88,112.71,269.52,112.94,270.01,113.41z"/>
		<path class="st5" d="M278.86,112.78v6.41h-1.43v-0.82c-0.24,0.29-0.54,0.51-0.9,0.67c-0.36,0.16-0.75,0.23-1.16,0.23
			c-0.86,0-1.53-0.24-2.02-0.71s-0.74-1.18-0.74-2.12v-3.66h1.5v3.46c0,0.58,0.13,1.01,0.39,1.29s0.63,0.43,1.11,0.43
			c0.54,0,0.96-0.17,1.28-0.5c0.32-0.33,0.47-0.81,0.47-1.43v-3.24H278.86z"/>
		<path class="st5" d="M284.67,118.84c-0.18,0.14-0.39,0.25-0.64,0.32c-0.25,0.07-0.52,0.11-0.8,0.11c-0.7,0-1.25-0.18-1.63-0.55
			c-0.38-0.37-0.58-0.9-0.58-1.61v-3.08h-1.06v-1.2h1.06v-1.46h1.5v1.46h1.72v1.2h-1.72v3.05c0,0.31,0.08,0.55,0.23,0.71
			c0.15,0.16,0.37,0.25,0.66,0.25c0.34,0,0.62-0.09,0.84-0.26L284.67,118.84z"/>
		<path class="st5" d="M289.62,112.71v1.43c-0.13-0.02-0.24-0.04-0.35-0.04c-0.58,0-1.04,0.17-1.37,0.51s-0.49,0.83-0.49,1.47v3.11
			h-1.5v-6.41h1.43v0.94C287.77,113.04,288.53,112.71,289.62,112.71z"/>
		<path class="st5" d="M290.96,111.46c-0.18-0.17-0.28-0.39-0.28-0.64c0-0.26,0.09-0.47,0.28-0.64c0.18-0.17,0.41-0.26,0.68-0.26
			c0.27,0,0.5,0.08,0.68,0.25c0.18,0.16,0.28,0.37,0.28,0.62c0,0.26-0.09,0.49-0.27,0.67c-0.18,0.18-0.41,0.27-0.69,0.27
			C291.38,111.72,291.15,111.64,290.96,111.46z M290.89,112.78h1.5v6.41h-1.5V112.78z"/>
		<path class="st5" d="M295.51,118.85c-0.53-0.28-0.94-0.67-1.24-1.17c-0.3-0.5-0.44-1.07-0.44-1.7s0.15-1.2,0.44-1.69
			c0.3-0.5,0.71-0.88,1.23-1.16c0.52-0.28,1.12-0.42,1.79-0.42c0.63,0,1.19,0.13,1.66,0.38s0.83,0.62,1.07,1.1l-1.15,0.67
			c-0.18-0.3-0.41-0.52-0.69-0.67c-0.28-0.15-0.58-0.22-0.91-0.22c-0.56,0-1.02,0.18-1.39,0.55c-0.37,0.36-0.55,0.85-0.55,1.46
			c0,0.61,0.18,1.09,0.55,1.46s0.83,0.55,1.4,0.55c0.33,0,0.63-0.07,0.91-0.22c0.28-0.15,0.51-0.37,0.69-0.67l1.15,0.67
			c-0.25,0.48-0.61,0.85-1.09,1.11c-0.48,0.26-1.03,0.39-1.65,0.39C296.63,119.27,296.04,119.13,295.51,118.85z"/>
		<path class="st5" d="M301.4,111.46c-0.18-0.17-0.28-0.39-0.28-0.64c0-0.26,0.09-0.47,0.28-0.64c0.18-0.17,0.41-0.26,0.68-0.26
			c0.27,0,0.5,0.08,0.68,0.25c0.18,0.16,0.28,0.37,0.28,0.62c0,0.26-0.09,0.49-0.27,0.67c-0.18,0.18-0.41,0.27-0.69,0.27
			C301.81,111.72,301.59,111.64,301.4,111.46z M301.33,112.78h1.5v6.41h-1.5V112.78z"/>
		<path class="st5" d="M305.93,118.85c-0.52-0.28-0.93-0.67-1.22-1.17s-0.44-1.07-0.44-1.7s0.15-1.2,0.44-1.69
			c0.29-0.5,0.7-0.88,1.22-1.16c0.52-0.28,1.1-0.42,1.75-0.42c0.66,0,1.24,0.14,1.76,0.42c0.52,0.28,0.93,0.67,1.22,1.16
			c0.29,0.5,0.44,1.06,0.44,1.69s-0.15,1.2-0.44,1.7s-0.7,0.89-1.22,1.17c-0.52,0.28-1.11,0.42-1.76,0.42
			C307.03,119.27,306.45,119.13,305.93,118.85z M309.05,117.43c0.36-0.37,0.54-0.85,0.54-1.45c0-0.6-0.18-1.08-0.54-1.45
			c-0.36-0.37-0.82-0.55-1.37-0.55c-0.55,0-1.01,0.18-1.36,0.55c-0.36,0.37-0.53,0.85-0.53,1.45c0,0.6,0.18,1.08,0.53,1.45
			c0.36,0.37,0.81,0.55,1.36,0.55C308.23,117.99,308.69,117.8,309.05,117.43z M308.28,110.26h1.76l-2.09,1.64h-1.3L308.28,110.26z"
			/>
		<path class="st5" d="M318.12,113.41c0.49,0.47,0.73,1.17,0.73,2.1v3.67h-1.5v-3.48c0-0.56-0.13-0.98-0.4-1.27
			c-0.26-0.28-0.64-0.43-1.13-0.43c-0.55,0-0.99,0.17-1.31,0.5s-0.48,0.81-0.48,1.43v3.24h-1.5v-6.41h1.43v0.83
			c0.25-0.3,0.56-0.52,0.94-0.67s0.8-0.23,1.27-0.23C316.98,112.71,317.63,112.94,318.12,113.41z"/>
		<path class="st5" d="M329.3,113.11c0.49,0.27,0.88,0.66,1.16,1.15c0.28,0.5,0.42,1.07,0.42,1.72c0,0.65-0.14,1.22-0.42,1.72
			c-0.28,0.5-0.67,0.89-1.16,1.16c-0.49,0.27-1.05,0.41-1.67,0.41c-0.86,0-1.55-0.29-2.05-0.86v3.11h-1.5v-8.74h1.43v0.84
			c0.25-0.3,0.55-0.53,0.92-0.68s0.77-0.23,1.21-0.23C328.25,112.71,328.8,112.84,329.3,113.11z M328.82,117.43
			c0.36-0.37,0.53-0.85,0.53-1.45c0-0.6-0.18-1.08-0.53-1.45c-0.36-0.37-0.81-0.55-1.36-0.55c-0.36,0-0.68,0.08-0.97,0.25
			c-0.29,0.16-0.52,0.4-0.68,0.7s-0.25,0.66-0.25,1.06c0,0.4,0.08,0.75,0.25,1.06c0.17,0.3,0.4,0.54,0.68,0.7
			c0.29,0.16,0.61,0.25,0.97,0.25C328.01,117.99,328.46,117.8,328.82,117.43z"/>
		<path class="st5" d="M338.3,116.46h-5.03c0.09,0.47,0.32,0.85,0.69,1.12c0.37,0.28,0.83,0.41,1.39,0.41c0.7,0,1.28-0.23,1.74-0.7
			l0.8,0.92c-0.29,0.34-0.65,0.6-1.09,0.78c-0.44,0.18-0.94,0.26-1.49,0.26c-0.7,0-1.32-0.14-1.86-0.42s-0.95-0.67-1.24-1.17
			s-0.44-1.07-0.44-1.7c0-0.62,0.14-1.19,0.43-1.69s0.68-0.89,1.18-1.17c0.5-0.28,1.07-0.42,1.7-0.42c0.62,0,1.18,0.14,1.67,0.41
			c0.49,0.28,0.88,0.66,1.15,1.16c0.28,0.5,0.41,1.08,0.41,1.73C338.33,116.12,338.32,116.27,338.3,116.46z M333.87,114.33
			c-0.33,0.28-0.53,0.66-0.61,1.13h3.64c-0.06-0.46-0.26-0.84-0.59-1.13s-0.74-0.43-1.22-0.43
			C334.61,113.91,334.2,114.05,333.87,114.33z"/>
		<path class="st5" d="M343.47,112.71v1.43c-0.13-0.02-0.24-0.04-0.35-0.04c-0.58,0-1.04,0.17-1.37,0.51s-0.49,0.83-0.49,1.47v3.11
			h-1.5v-6.41h1.43v0.94C341.63,113.04,342.39,112.71,343.47,112.71z"/>
		<path class="st5" d="M345.23,119.07c-0.5-0.14-0.89-0.31-1.19-0.52l0.58-1.14c0.29,0.19,0.63,0.35,1.04,0.46
			c0.4,0.12,0.8,0.17,1.19,0.17c0.9,0,1.34-0.24,1.34-0.71c0-0.22-0.11-0.38-0.34-0.47c-0.23-0.09-0.59-0.17-1.1-0.25
			c-0.53-0.08-0.96-0.17-1.29-0.28c-0.33-0.1-0.62-0.29-0.86-0.55s-0.37-0.62-0.37-1.09c0-0.61,0.25-1.09,0.76-1.46
			c0.51-0.36,1.19-0.55,2.06-0.55c0.44,0,0.88,0.05,1.32,0.15c0.44,0.1,0.8,0.23,1.08,0.4l-0.58,1.14
			c-0.54-0.32-1.16-0.48-1.84-0.48c-0.44,0-0.77,0.07-1,0.2s-0.34,0.31-0.34,0.52c0,0.24,0.12,0.41,0.37,0.51
			c0.24,0.1,0.62,0.19,1.13,0.28c0.51,0.08,0.93,0.17,1.26,0.28c0.33,0.1,0.61,0.28,0.85,0.53c0.24,0.25,0.35,0.6,0.35,1.06
			c0,0.6-0.26,1.08-0.78,1.44c-0.52,0.36-1.23,0.54-2.12,0.54C346.23,119.27,345.72,119.2,345.23,119.07z"/>
		<path class="st5" d="M352.08,118.85c-0.52-0.28-0.93-0.67-1.22-1.17s-0.44-1.07-0.44-1.7s0.15-1.2,0.44-1.69
			c0.29-0.5,0.7-0.88,1.22-1.16c0.52-0.28,1.1-0.42,1.75-0.42c0.66,0,1.24,0.14,1.76,0.42c0.52,0.28,0.93,0.67,1.22,1.16
			c0.29,0.5,0.44,1.06,0.44,1.69s-0.15,1.2-0.44,1.7s-0.7,0.89-1.22,1.17c-0.52,0.28-1.11,0.42-1.76,0.42
			C353.18,119.27,352.6,119.13,352.08,118.85z M355.2,117.43c0.36-0.37,0.54-0.85,0.54-1.45c0-0.6-0.18-1.08-0.54-1.45
			c-0.36-0.37-0.82-0.55-1.37-0.55c-0.55,0-1.01,0.18-1.36,0.55c-0.36,0.37-0.53,0.85-0.53,1.45c0,0.6,0.18,1.08,0.53,1.45
			c0.36,0.37,0.81,0.55,1.36,0.55C354.38,117.99,354.84,117.8,355.2,117.43z"/>
		<path class="st5" d="M364.27,113.41c0.49,0.47,0.73,1.17,0.73,2.1v3.67h-1.5v-3.48c0-0.56-0.13-0.98-0.4-1.27
			c-0.26-0.28-0.64-0.43-1.13-0.43c-0.55,0-0.99,0.17-1.31,0.5s-0.48,0.81-0.48,1.43v3.24h-1.5v-6.41h1.43v0.83
			c0.25-0.3,0.56-0.52,0.94-0.67s0.8-0.23,1.27-0.23C363.13,112.71,363.78,112.94,364.27,113.41z"/>
		<path class="st5" d="M371.52,113.38c0.5,0.45,0.75,1.13,0.75,2.05v3.76h-1.42v-0.78c-0.18,0.28-0.45,0.49-0.79,0.64
			c-0.34,0.15-0.75,0.22-1.23,0.22s-0.9-0.08-1.26-0.25c-0.36-0.16-0.64-0.39-0.83-0.68c-0.2-0.29-0.29-0.62-0.29-0.99
			c0-0.58,0.21-1.04,0.64-1.39c0.43-0.35,1.1-0.52,2.02-0.52h1.66v-0.1c0-0.45-0.13-0.79-0.4-1.03c-0.27-0.24-0.67-0.36-1.19-0.36
			c-0.36,0-0.71,0.06-1.06,0.17c-0.35,0.11-0.64,0.27-0.88,0.47l-0.59-1.09c0.34-0.26,0.74-0.45,1.21-0.59
			c0.47-0.14,0.97-0.2,1.5-0.2C370.3,112.71,371.02,112.93,371.52,113.38z M370.16,117.92c0.29-0.17,0.5-0.42,0.62-0.74v-0.74h-1.55
			c-0.86,0-1.3,0.28-1.3,0.85c0,0.27,0.11,0.49,0.32,0.65s0.52,0.24,0.9,0.24C369.53,118.18,369.86,118.09,370.16,117.92z"/>
		<path class="st5" d="M374.19,110.28h1.5v8.9h-1.5V110.28z"/>
		<path class="st5" d="M377.73,111.46c-0.18-0.17-0.28-0.39-0.28-0.64c0-0.26,0.09-0.47,0.28-0.64c0.18-0.17,0.41-0.26,0.68-0.26
			c0.27,0,0.5,0.08,0.68,0.25c0.18,0.16,0.28,0.37,0.28,0.62c0,0.26-0.09,0.49-0.27,0.67c-0.18,0.18-0.41,0.27-0.69,0.27
			C378.15,111.72,377.92,111.64,377.73,111.46z M377.66,112.78h1.5v6.41h-1.5V112.78z"/>
		<path class="st5" d="M386.13,117.99v1.2h-5.53v-0.95l3.52-4.26h-3.44v-1.2h5.36v0.95l-3.53,4.26H386.13z"/>
		<path class="st5" d="M392.13,113.38c0.5,0.45,0.75,1.13,0.75,2.05v3.76h-1.42v-0.78c-0.18,0.28-0.45,0.49-0.79,0.64
			c-0.34,0.15-0.75,0.22-1.23,0.22s-0.9-0.08-1.26-0.25c-0.36-0.16-0.64-0.39-0.83-0.68c-0.2-0.29-0.29-0.62-0.29-0.99
			c0-0.58,0.21-1.04,0.64-1.39c0.43-0.35,1.1-0.52,2.02-0.52h1.66v-0.1c0-0.45-0.13-0.79-0.4-1.03c-0.27-0.24-0.67-0.36-1.19-0.36
			c-0.36,0-0.71,0.06-1.06,0.17c-0.35,0.11-0.64,0.27-0.88,0.47l-0.59-1.09c0.34-0.26,0.74-0.45,1.21-0.59
			c0.47-0.14,0.97-0.2,1.5-0.2C390.91,112.71,391.63,112.93,392.13,113.38z M390.76,117.92c0.29-0.17,0.5-0.42,0.62-0.74v-0.74
			h-1.55c-0.86,0-1.3,0.28-1.3,0.85c0,0.27,0.11,0.49,0.32,0.65s0.52,0.24,0.9,0.24C390.13,118.18,390.47,118.09,390.76,117.92z"/>
		<path class="st5" d="M401.13,110.28v8.9h-1.44v-0.83c-0.25,0.3-0.55,0.53-0.92,0.68c-0.36,0.15-0.77,0.23-1.21,0.23
			c-0.62,0-1.17-0.14-1.66-0.41c-0.49-0.27-0.88-0.66-1.16-1.16c-0.28-0.5-0.42-1.07-0.42-1.72c0-0.65,0.14-1.22,0.42-1.72
			s0.67-0.88,1.16-1.15c0.49-0.27,1.05-0.41,1.66-0.41c0.42,0,0.81,0.07,1.16,0.22c0.35,0.14,0.65,0.36,0.9,0.65v-3.29H401.13z
			 M398.72,117.74c0.29-0.16,0.52-0.4,0.68-0.7c0.17-0.3,0.25-0.66,0.25-1.06c0-0.4-0.08-0.75-0.25-1.06s-0.4-0.54-0.68-0.7
			s-0.61-0.25-0.97-0.25s-0.68,0.08-0.97,0.25s-0.52,0.4-0.68,0.7s-0.25,0.66-0.25,1.06c0,0.4,0.08,0.75,0.25,1.06
			c0.17,0.3,0.4,0.54,0.68,0.7s0.61,0.25,0.97,0.25S398.43,117.9,398.72,117.74z"/>
		<path class="st5" d="M407.71,113.38c0.5,0.45,0.75,1.13,0.75,2.05v3.76h-1.42v-0.78c-0.18,0.28-0.45,0.49-0.79,0.64
			c-0.34,0.15-0.75,0.22-1.23,0.22s-0.9-0.08-1.26-0.25c-0.36-0.16-0.64-0.39-0.83-0.68c-0.2-0.29-0.29-0.62-0.29-0.99
			c0-0.58,0.21-1.04,0.64-1.39c0.43-0.35,1.1-0.52,2.02-0.52h1.66v-0.1c0-0.45-0.13-0.79-0.4-1.03c-0.27-0.24-0.67-0.36-1.19-0.36
			c-0.36,0-0.71,0.06-1.06,0.17c-0.35,0.11-0.64,0.27-0.88,0.47l-0.59-1.09c0.34-0.26,0.74-0.45,1.21-0.59
			c0.47-0.14,0.97-0.2,1.5-0.2C406.49,112.71,407.21,112.93,407.71,113.38z M406.35,117.92c0.29-0.17,0.5-0.42,0.62-0.74v-0.74
			h-1.55c-0.86,0-1.3,0.28-1.3,0.85c0,0.27,0.11,0.49,0.32,0.65s0.52,0.24,0.9,0.24C405.72,118.18,406.05,118.09,406.35,117.92z"/>
		<path class="st5" d="M410.17,118.99c-0.19-0.19-0.29-0.43-0.29-0.71c0-0.3,0.09-0.54,0.28-0.72c0.19-0.18,0.42-0.28,0.7-0.28
			s0.51,0.09,0.7,0.28c0.19,0.18,0.28,0.42,0.28,0.72c0,0.29-0.1,0.53-0.29,0.71c-0.19,0.19-0.42,0.28-0.7,0.28
			C410.59,119.27,410.36,119.18,410.17,118.99z"/>
		<path class="st5" d="M412.34,110.79h1.3l-0.11,3.32h-1.09L412.34,110.79z M414.66,110.79h1.3l-0.11,3.32h-1.09L414.66,110.79z"/>
	</g>
</g>
</svg>
